<?xml version="1.0" encoding="UTF-8" standalone="no"?>
<!DOCTYPE svg PUBLIC "-//W3C//DTD SVG 1.1//EN" "http://www.w3.org/Graphics/SVG/1.1/DTD/svg11.dtd">
<svg width="100%" height="100%" viewBox="0 0 2800 2800" version="1.1" xmlns="http://www.w3.org/2000/svg" xmlns:xlink="http://www.w3.org/1999/xlink" xml:space="preserve" xmlns:serif="http://www.serif.com/" style="fill-rule:evenodd;clip-rule:evenodd;stroke-linejoin:round;stroke-miterlimit:2;">
    <g transform="matrix(1,0,0,1,0,400)">
        <g transform="matrix(1,0,0,1.2,0,-400)">
            <rect x="0" y="0" width="2800" height="2000" style="fill:rgb(225,237,249);"/>
        </g>
        <path d="M2700,508.733L2700,1378.53L100,1378.53L100,585.054L260.101,585.054L260.101,726.903L358.553,726.903L358.553,841.624L391.874,841.624L391.874,432.644L449.964,432.644L449.964,389.293L468.314,389.293L468.314,352.253L479.104,352.253L479.104,283.764L488.975,283.764L488.975,352.253L499.774,352.253L499.774,389.293L518.125,389.293L518.125,432.644L576.215,432.644L576.215,841.624L742.097,841.624L743.938,614.304L813.498,614.304L813.498,509.523L920.149,509.523L920.149,614.304L987.14,614.304L986.75,769.874L1111.84,769.874L1111.84,695.153L1241.17,695.153L1241.17,769.874L1316.6,769.874L1316.6,391.574L1374.69,391.574L1374.69,348.224L1393.04,348.224L1393.04,311.184L1403.84,311.184L1403.84,242.693L1413.71,242.693L1413.71,311.184L1424.52,311.184L1424.52,348.224L1442.87,348.224L1442.87,391.574L1500.95,391.574L1500.95,769.874L1666.82,769.874L1666.82,494.724L1855.77,494.724L1855.77,648.204L2020.09,648.204L2020.09,452.903L2095.03,452.903L2095.03,403.903L2113.39,403.903L2113.39,366.894L2124.17,366.894L2124.17,298.383L2134.04,298.383L2134.04,366.894L2144.83,366.894L2144.83,403.903L2163.2,403.903L2163.2,452.903L2238.14,452.903L2238.14,648.204L2368.85,648.204L2368.85,265.284L2575.57,265.284L2575.57,508.733L2700,508.733Z" style="fill:rgb(195,220,252);fill-rule:nonzero;"/>
        <path d="M2799.19,1357.53L1824.25,1357.53C1836.32,1068.35 1892.53,787.578 2175.53,739.656C2261.88,722.644 2354.21,734.983 2436.85,710.171C2486.81,697.291 2512.02,648.522 2518.24,593.351C2543.93,438.107 2700.61,337.616 2799.31,337.852L2799.19,1357.53Z" style="fill:rgb(207,233,255);fill-rule:nonzero;"/>
        <path d="M2800,1025.2C2800,1025.2 2780.32,692.876 2658.12,692.876C2474.16,692.876 2442.31,1196.6 2272.37,1096.9C2104.01,998.135 1950.37,964.579 1914.44,1357.52L2799.1,1357.53L2800,1025.2Z" style="fill:rgb(192,218,255);fill-rule:nonzero;"/>
        <path d="M1029.03,1362.83C1051.96,955.179 1432.55,1281.57 1539.21,1015.78C1584.92,914.475 1654.71,846.176 1772.63,869.301C1890.54,892.427 1878.51,980.616 2034.93,978.166C2191.35,975.716 2176.44,853.638 2322.75,883.063C2469.07,912.487 2519.32,1087.62 2493.71,1356.25L1029.03,1362.83Z" style="fill:rgb(179,203,244);fill-rule:nonzero;"/>
        <path d="M2800,1025.2L2799.1,1357.53L1729.9,1359.68C1729.9,1359.68 1919.11,1205.92 2077.75,1222.86C2157.61,1220.05 2251.34,1200.74 2326.16,1173.44C2392.43,1151.24 2435.78,1119.87 2476.36,1076.19C2566.19,984.505 2701.34,910.497 2800,1025.2Z" style="fill:rgb(163,188,239);fill-rule:nonzero;"/>
        <path d="M1484.86,1259.19C1481.98,1293.56 1475.88,1327.33 1466.28,1359.49L0.082,1359.49L0.082,459.864C6.845,456.723 121.281,409.075 202.592,531.62C294.482,667.916 446.326,346.396 621.046,519.841C689.755,585.051 663.988,669.572 719.623,722.103C751.583,754.721 802.833,760.141 841.422,741.099C901.97,716.193 961.067,661.011 1032.31,692.319C1082.91,714.819 1111.49,746.864 1127.98,790.3C1161.71,863.696 1120.04,967.462 1188.73,1016.93C1236.89,1045 1305.1,1032.17 1360.24,1041.23C1477.16,1051.15 1492.48,1176.7 1484.86,1259.19Z" style="fill:rgb(207,233,255);fill-rule:nonzero;"/>
        <path d="M1060.93,1257.15C1062.05,1284.03 1052.8,1341.45 1046.65,1359.49L0.082,1359.49L0.082,671.96C7.184,663.988 100.135,643.854 144.635,726.802C214.43,835.825 322.591,566.455 456.381,733.504C494.938,790.805 476.574,878.035 553.856,894.665C614.057,904.627 665.392,823.621 728.94,846.368C824.192,881.459 814.583,984.792 820.885,1047.2C848.725,1193.57 1060.11,1011.31 1060.93,1257.15Z" style="fill:rgb(183,212,247);fill-rule:nonzero;"/>
        <path d="M1746.7,1362.83C1252.81,1361.83 494.018,1360.83 0.108,1359.83C0.43,1357.9 -0.511,1113.68 0.434,1111.94C25.754,993.625 114.81,955.926 239.465,1064.57C291.28,1101.1 343.572,1157.54 417.175,1144.84C632.621,1054.17 603.119,1273.1 766.287,1253.11C839.383,1236.78 889.007,1156.8 973.538,1172.1C1015.49,1180.99 1060.95,1220.61 1100.27,1232.64C1146.28,1250.57 1185.29,1258.23 1229.65,1261.61C1352.84,1274.86 1632.41,1220.84 1746.7,1362.83Z" style="fill:rgb(163,188,239);fill-rule:nonzero;"/>
        <path d="M813.63,152.167C833.974,152.167 852.067,162.482 863.6,178.499C883.348,165.661 915.002,168.085 932.063,183.711C951.637,158.477 985.931,171.22 993.772,201.971C1015.51,178.628 1052.56,198.344 1051.55,230.508L751.373,230.508C744.804,190.705 775.026,151.6 813.63,152.167Z" style="fill:rgb(255,255,253);fill-rule:nonzero;"/>
        <path d="M1713.38,205.179C1733.72,205.179 1751.81,215.495 1763.35,231.512C1783.09,218.673 1814.75,221.097 1831.81,236.723C1851.38,211.489 1885.68,224.232 1893.52,254.983C1915.26,231.641 1952.31,251.357 1951.29,283.52L1651.12,283.52C1644.55,243.717 1674.77,204.612 1713.38,205.179Z" style="fill:rgb(255,255,253);fill-rule:nonzero;"/>
        <path d="M1208.83,937.503C1223.51,881.453 1173.55,854.519 1151.14,839.861C1116.85,817.438 1098.59,794.377 1085.53,742.251C1061.19,645.158 967.515,654.645 963.299,791.994C960.139,894.916 870.72,889.381 887.118,984.883C903.807,1048.58 849.737,1051.76 862.305,1109.98C872.812,1158.66 972.824,1197.21 1034.85,1197.21C1153.12,1197.21 1238.79,1159.63 1246.42,1100.72C1255.9,1027.62 1192.15,1001.2 1208.83,937.503Z" style="fill:rgb(118,137,214);fill-rule:nonzero;"/>
        <path d="M1091.62,903.19C1089.29,900.86 1085.52,900.86 1083.19,903.19L1044.81,941.587L1044.81,851.578C1044.81,848.284 1042.15,845.613 1038.85,845.613C1035.56,845.613 1032.89,848.284 1032.89,851.578L1032.89,1073.04L1003.4,1043.54C1001.07,1041.21 997.302,1041.21 994.974,1043.54C992.645,1045.87 992.645,1049.64 994.974,1051.97L1032.89,1089.91L1032.89,1353.75C1032.89,1357.04 1035.56,1359.71 1038.85,1359.71C1042.15,1359.71 1044.81,1357.04 1044.81,1353.75L1044.81,958.455L1091.62,911.624C1093.95,909.296 1093.95,905.52 1091.62,903.19Z" style="fill:rgb(59,103,155);fill-rule:nonzero;"/>
        <path d="M1280.26,1085.34C1270.66,1047.64 1308.91,1035.39 1323.58,1025.53C1346.01,1010.45 1346.01,996.536 1346.01,974.309C1346.01,960.411 1359.95,916.391 1392.84,917.263C1425.73,916.391 1439.66,960.411 1439.66,974.309C1439.66,996.536 1439.66,1010.45 1462.1,1025.53C1476.77,1035.39 1515.02,1047.64 1505.41,1085.34C1494.49,1128.19 1530.16,1144.23 1526,1177.46C1521.84,1210.66 1462.47,1232.41 1392.93,1232.45L1392.74,1232.45C1323.2,1232.41 1263.83,1210.66 1259.68,1177.46C1255.52,1144.23 1291.18,1128.19 1280.26,1085.34Z" style="fill:rgb(82,127,191);fill-rule:nonzero;"/>
        <path d="M1454.8,1061.53C1452.39,1059.3 1448.61,1059.45 1446.38,1061.87L1398.8,1113.41L1398.8,994.689C1398.8,991.395 1396.13,988.725 1392.84,988.725C1389.54,988.725 1386.88,991.395 1386.88,994.689L1386.88,1179.47L1330.73,1123.29C1328.4,1120.96 1324.63,1120.96 1322.3,1123.29C1319.97,1125.62 1319.97,1129.4 1322.3,1131.73L1386.88,1196.34L1386.88,1348.4C1386.88,1351.7 1389.54,1354.37 1392.84,1354.37C1396.13,1354.37 1398.8,1351.7 1398.8,1348.4L1398.8,1130.98L1455.14,1069.96C1457.37,1067.54 1457.22,1063.77 1454.8,1061.53Z" style="fill:rgb(59,103,155);fill-rule:nonzero;"/>
        <g transform="matrix(1,0,0,1.61244,0,-824.871)">
            <rect x="0.125" y="1346.87" width="2798.53" height="653.13" style="fill:rgb(163,188,239);"/>
        </g>
        <rect x="0" y="1498.86" width="2800" height="289.29" style="fill:rgb(118,137,214);"/>
        <rect x="0" y="1788.15" width="2800" height="33.92" style="fill:rgb(192,218,255);"/>
        <rect x="0" y="1463.25" width="2800" height="33.92" style="fill:rgb(192,218,255);"/>
        <rect x="0" y="1345.87" width="2800" height="33.92" style="fill:rgb(192,218,255);"/>
        <path d="M2243.11,1570.01L1940.9,1570.01L1965.57,1522.4L2218.44,1522.4L2243.11,1570.01Z" style="fill:rgb(255,255,253);fill-rule:nonzero;"/>
        <path d="M2285.33,1651.5L1898.68,1651.5L1924.21,1602.23L2259.8,1602.23L2285.33,1651.5Z" style="fill:rgb(255,255,253);fill-rule:nonzero;"/>
        <path d="M2342.84,1762.49L1841.17,1762.49L1875.95,1695.37L2308.06,1695.37L2342.84,1762.49Z" style="fill:rgb(255,255,253);fill-rule:nonzero;"/>
        <rect x="1479.29" y="799.734" width="1225.44" height="642.056" style="fill:rgb(235,86,72);"/>
        <path d="M2092.01,514.741L1443.86,806.878L2740.16,806.878L2092.01,514.741Z" style="fill:rgb(235,86,72);fill-rule:nonzero;"/>
        <rect x="1479.29" y="1410.21" width="1225.44" height="31.79" style="fill:rgb(206,57,50);"/>
        <rect x="1520.94" y="806.878" width="61.85" height="634.912" style="fill:rgb(206,57,50);"/>
        <rect x="2601.23" y="806.878" width="61.85" height="634.912" style="fill:rgb(206,57,50);"/>
        <path d="M1496.56,795.551L2687.46,795.551L2092.01,527.166L1496.56,795.551ZM2740.16,818.206L1443.86,818.206C1438.52,818.206 1433.91,814.479 1432.79,809.259C1431.67,804.04 1434.34,798.745 1439.21,796.552L2087.36,504.414C2090.32,503.08 2093.71,503.08 2096.67,504.414L2744.81,796.552C2749.68,798.745 2752.36,804.04 2751.23,809.259C2750.11,814.479 2745.5,818.206 2740.16,818.206Z" style="fill:rgb(206,57,50);fill-rule:nonzero;"/>
        <rect x="1958.18" y="1138.98" width="267.66" height="271.8" style="fill:rgb(206,57,50);"/>
        <rect x="1977.88" y="1157.4" width="228.27" height="253.38" style="fill:rgb(172,209,239);"/>
        <path d="M1624.54,1028.14L1624.54,921.311C1624.54,889.1 1650.75,862.895 1682.96,862.895C1715.17,862.895 1741.38,889.1 1741.38,921.311L1741.38,1028.14L1624.54,1028.14Z" style="fill:rgb(206,57,50);fill-rule:nonzero;"/>
        <path d="M1731.36,921.318L1731.36,1018.15L1634.53,1018.15L1634.53,921.318C1634.53,896.554 1653.09,876.162 1677.08,873.256C1677.29,873.207 1677.54,873.183 1677.76,873.158C1679.47,872.987 1681.2,872.89 1682.96,872.89C1684.72,872.89 1686.43,872.987 1688.14,873.158C1696.42,874.062 1704.04,877.017 1710.53,881.535C1712.93,883.171 1715.15,885.028 1717.2,887.079C1718.42,888.324 1719.59,889.619 1720.67,890.986C1724.36,895.529 1727.21,900.755 1729.04,906.446C1730.56,911.135 1731.36,916.117 1731.36,921.318Z" style="fill:rgb(172,209,239);fill-rule:nonzero;"/>
        <path d="M1624.54,1307.91L1624.54,1201.08C1624.54,1168.87 1650.75,1142.66 1682.96,1142.66C1715.17,1142.66 1741.38,1168.87 1741.38,1201.08L1741.38,1307.91L1624.54,1307.91Z" style="fill:rgb(206,57,50);fill-rule:nonzero;"/>
        <path d="M1731.36,1201.07L1731.36,1297.9L1634.53,1297.9L1634.53,1201.07C1634.53,1177.33 1651.6,1157.6 1674.14,1153.47C1675.34,1153.23 1676.54,1153.06 1677.76,1152.93C1679.47,1152.74 1681.2,1152.67 1682.96,1152.67C1684.72,1152.67 1686.45,1152.74 1688.14,1152.93C1695.49,1153.72 1702.35,1156.16 1708.36,1159.85C1711.56,1161.85 1714.54,1164.19 1717.2,1166.83C1717.74,1167.37 1718.27,1167.93 1718.81,1168.52L1718.81,1168.54C1722.55,1172.67 1725.6,1177.43 1727.73,1182.68C1730.09,1188.35 1731.36,1194.57 1731.36,1201.07Z" style="fill:rgb(172,209,239);fill-rule:nonzero;"/>
        <path d="M1788.16,1028.14L1788.16,921.311C1788.16,889.1 1814.37,862.895 1846.58,862.895C1878.79,862.895 1905,889.1 1905,921.311L1905,1028.14L1788.16,1028.14Z" style="fill:rgb(206,57,50);fill-rule:nonzero;"/>
        <path d="M1894.99,921.318L1894.99,1018.15L1798.16,1018.15L1798.16,921.318C1798.16,896.31 1817.08,875.772 1841.38,873.158C1843.09,872.987 1844.83,872.89 1846.59,872.89C1847.32,872.89 1848.05,872.914 1848.76,872.963C1849.76,872.987 1850.76,873.06 1851.76,873.158C1862.73,874.33 1872.6,879.166 1880.12,886.396C1880.36,886.615 1880.61,886.859 1880.83,887.079C1884.15,890.4 1886.98,894.21 1889.2,898.362C1892.72,904.857 1894.8,912.258 1894.97,920.121C1894.99,920.512 1894.99,920.927 1894.99,921.318Z" style="fill:rgb(172,209,239);fill-rule:nonzero;"/>
        <path d="M1788.16,1307.91L1788.16,1201.08C1788.16,1168.87 1814.37,1142.66 1846.58,1142.66C1878.79,1142.66 1905,1168.87 1905,1201.08L1905,1307.91L1788.16,1307.91Z" style="fill:rgb(206,57,50);fill-rule:nonzero;"/>
        <path d="M1894.99,1201.07L1894.99,1297.9L1798.16,1297.9L1798.16,1201.07C1798.16,1176.09 1817.08,1155.52 1841.38,1152.93C1842.9,1152.76 1844.46,1152.69 1846.02,1152.69C1846.22,1152.67 1846.39,1152.67 1846.59,1152.67C1848.32,1152.67 1850.08,1152.74 1851.76,1152.93C1861.78,1153.99 1870.86,1158.11 1878.09,1164.34C1879.04,1165.12 1879.95,1165.95 1880.83,1166.83C1883.39,1169.4 1885.66,1172.25 1887.59,1175.35C1891.16,1181 1893.55,1187.42 1894.5,1194.3C1894.82,1196.53 1894.99,1198.77 1894.99,1201.07Z" style="fill:rgb(172,209,239);fill-rule:nonzero;"/>
        <path d="M1951.78,1028.14L1951.78,921.311C1951.78,889.1 1977.99,862.895 2010.2,862.895C2042.41,862.895 2068.62,889.1 2068.62,921.311L2068.62,1028.14L1951.78,1028.14Z" style="fill:rgb(206,57,50);fill-rule:nonzero;"/>
        <path d="M2058.62,921.318L2058.62,1018.15L1961.78,1018.15L1961.78,921.318C1961.78,896.31 1980.71,875.772 2005.01,873.158C2006.09,873.06 2007.18,872.963 2008.28,872.938C2008.92,872.914 2009.55,872.89 2010.19,872.89C2011.95,872.89 2013.68,872.987 2015.39,873.158C2024.94,874.185 2033.63,877.97 2040.69,883.733C2041.99,884.758 2043.23,885.882 2044.43,887.079C2046.65,889.302 2048.63,891.695 2050.36,894.308C2053.95,899.607 2056.52,905.64 2057.74,912.16C2058.32,915.115 2058.62,918.191 2058.62,921.318Z" style="fill:rgb(172,209,239);fill-rule:nonzero;"/>
        <path d="M2115.41,1028.14L2115.41,921.311C2115.41,889.1 2141.61,862.895 2173.82,862.895C2206.03,862.895 2232.24,889.1 2232.24,921.311L2232.24,1028.14L2115.41,1028.14Z" style="fill:rgb(206,57,50);fill-rule:nonzero;"/>
        <path d="M2222.24,921.318L2222.24,1018.15L2125.41,1018.15L2125.41,921.318C2125.41,896.31 2144.34,875.772 2168.64,873.158C2170.32,872.987 2172.08,872.89 2173.82,872.89C2174.55,872.89 2175.28,872.914 2176.01,872.963C2177.04,872.987 2178.02,873.06 2179.02,873.158C2189.96,874.33 2199.85,879.166 2207.35,886.396C2207.59,886.615 2207.83,886.859 2208.05,887.079C2211.38,890.4 2214.21,894.186 2216.46,898.337C2219.97,904.833 2222.05,912.233 2222.22,920.121C2222.24,920.512 2222.24,920.927 2222.24,921.318Z" style="fill:rgb(172,209,239);fill-rule:nonzero;"/>
        <path d="M2279.03,1028.14L2279.03,921.311C2279.03,889.1 2305.23,862.895 2337.44,862.895C2369.65,862.895 2395.86,889.1 2395.86,921.311L2395.86,1028.14L2279.03,1028.14Z" style="fill:rgb(206,57,50);fill-rule:nonzero;"/>
        <path d="M2385.87,921.318L2385.87,1018.15L2289.04,1018.15L2289.04,921.318C2289.04,896.31 2307.94,875.772 2332.24,873.158C2333.95,872.987 2335.68,872.89 2337.44,872.89C2339.2,872.89 2340.91,872.987 2342.62,873.158C2343.3,873.232 2343.99,873.33 2344.65,873.427C2355.15,874.99 2364.52,879.923 2371.68,887.079C2372.71,888.104 2373.66,889.155 2374.56,890.253C2378.05,894.405 2380.86,899.143 2382.79,904.296C2384.79,909.596 2385.87,915.334 2385.87,921.318Z" style="fill:rgb(172,209,239);fill-rule:nonzero;"/>
        <path d="M2279.03,1307.91L2279.03,1201.08C2279.03,1168.87 2305.23,1142.66 2337.44,1142.66C2369.65,1142.66 2395.86,1168.87 2395.86,1201.08L2395.86,1307.91L2279.03,1307.91Z" style="fill:rgb(206,57,50);fill-rule:nonzero;"/>
        <path d="M2385.87,1201.07L2385.87,1297.9L2289.04,1297.9L2289.04,1201.07C2289.04,1176.09 2307.94,1155.52 2332.24,1152.93C2333.78,1152.76 2335.32,1152.69 2336.9,1152.69C2337.07,1152.67 2337.27,1152.67 2337.44,1152.67C2339.2,1152.67 2340.93,1152.74 2342.62,1152.93C2352.63,1153.99 2361.72,1158.11 2368.95,1164.34C2369.9,1165.12 2370.8,1165.95 2371.68,1166.83C2374.24,1169.4 2376.54,1172.23 2378.45,1175.33C2382.01,1180.97 2384.43,1187.39 2385.38,1194.28C2385.7,1196.5 2385.87,1198.77 2385.87,1201.07Z" style="fill:rgb(172,209,239);fill-rule:nonzero;"/>
        <path d="M2442.65,1028.14L2442.65,921.311C2442.65,889.1 2468.85,862.895 2501.06,862.895C2533.27,862.895 2559.48,889.1 2559.48,921.311L2559.48,1028.14L2442.65,1028.14Z" style="fill:rgb(206,57,50);fill-rule:nonzero;"/>
        <path d="M2549.47,921.318L2549.47,1018.15L2452.64,1018.15L2452.64,921.318C2452.64,896.31 2471.57,875.772 2495.87,873.158C2497.57,872.987 2499.31,872.89 2501.07,872.89C2501.8,872.89 2502.53,872.914 2503.24,872.963C2504.24,872.987 2505.24,873.06 2506.24,873.158C2517.21,874.33 2527.05,879.142 2534.57,886.396C2534.82,886.615 2535.06,886.834 2535.31,887.079C2538.63,890.4 2541.46,894.21 2543.68,898.362C2547.2,904.857 2549.28,912.258 2549.45,920.121C2549.47,920.512 2549.47,920.927 2549.47,921.318Z" style="fill:rgb(172,209,239);fill-rule:nonzero;"/>
        <path d="M2442.65,1307.91L2442.65,1201.08C2442.65,1168.87 2468.85,1142.66 2501.06,1142.66C2533.27,1142.66 2559.48,1168.87 2559.48,1201.08L2559.48,1307.91L2442.65,1307.91Z" style="fill:rgb(206,57,50);fill-rule:nonzero;"/>
        <path d="M2549.47,1201.07L2549.47,1297.9L2452.64,1297.9L2452.64,1201.07C2452.64,1176.09 2471.57,1155.52 2495.87,1152.93C2496.01,1152.91 2496.13,1152.91 2496.28,1152.91C2497.84,1152.74 2499.46,1152.67 2501.07,1152.67C2502.8,1152.67 2504.54,1152.74 2506.24,1152.93C2514.87,1153.84 2522.8,1157.04 2529.47,1161.87C2531.55,1163.36 2533.5,1165.02 2535.31,1166.83C2536.82,1168.34 2538.21,1169.93 2539.48,1171.64C2543.15,1176.38 2545.91,1181.83 2547.59,1187.71C2548.81,1191.96 2549.47,1196.43 2549.47,1201.07Z" style="fill:rgb(172,209,239);fill-rule:nonzero;"/>
        <path d="M2158.99,679.629C2157.49,767.676 2026.52,767.662 2025.03,679.626C2026.53,591.582 2157.5,591.596 2158.99,679.629Z" style="fill:rgb(206,57,50);fill-rule:nonzero;"/>
        <path d="M2149.06,679.629C2147.78,754.618 2036.23,754.606 2034.96,679.626C2036.24,604.64 2147.79,604.651 2149.06,679.629Z" style="fill:rgb(197,226,255);fill-rule:nonzero;"/>
        <path d="M2092.01,682.441C2091.93,684.452 2070.74,662.043 2070.41,662.001C2069.31,660.902 2069.31,659.122 2070.41,658.023C2071.5,656.925 2073.28,656.925 2074.38,658.023L2089.2,672.839L2089.2,638.271C2089.2,636.718 2090.46,635.458 2092.01,635.458C2093.56,635.458 2094.82,636.718 2094.82,638.271L2094.82,679.629C2094.85,681.146 2093.52,682.467 2092.01,682.441Z" style="fill:rgb(206,57,50);fill-rule:nonzero;"/>
        <path d="M1958.65,1092.64L1970.86,1091.87C1971.13,1093.85 1971.67,1095.37 1972.48,1096.4C1973.8,1098.08 1975.69,1098.93 1978.14,1098.93C1979.98,1098.93 1981.39,1098.5 1982.38,1097.64C1983.37,1096.78 1983.87,1095.78 1983.87,1094.65C1983.87,1093.57 1983.39,1092.61 1982.45,1091.76C1981.51,1090.91 1979.31,1090.11 1975.88,1089.35C1970.25,1088.08 1966.23,1086.4 1963.84,1084.31C1961.42,1082.21 1960.21,1079.54 1960.21,1076.29C1960.21,1074.15 1960.83,1072.14 1962.07,1070.24C1963.3,1068.34 1965.16,1066.85 1967.65,1065.76C1970.13,1064.68 1973.54,1064.13 1977.86,1064.13C1983.17,1064.13 1987.21,1065.12 1990,1067.09C1992.79,1069.07 1994.44,1072.21 1994.97,1076.51L1982.88,1077.22C1982.55,1075.35 1981.88,1073.99 1980.85,1073.14C1979.82,1072.29 1978.4,1071.87 1976.59,1071.87C1975.09,1071.87 1973.97,1072.18 1973.21,1072.82C1972.46,1073.45 1972.08,1074.22 1972.08,1075.13C1972.08,1075.79 1972.39,1076.38 1973.02,1076.91C1973.62,1077.46 1975.06,1077.97 1977.32,1078.44C1982.93,1079.65 1986.95,1080.87 1989.38,1082.11C1991.8,1083.35 1993.57,1084.88 1994.68,1086.71C1995.78,1088.55 1996.33,1090.6 1996.33,1092.86C1996.33,1095.53 1995.6,1097.98 1994.12,1100.23C1992.65,1102.48 1990.59,1104.18 1987.95,1105.34C1985.3,1106.5 1981.97,1107.08 1977.95,1107.08C1970.88,1107.08 1965.99,1105.73 1963.27,1103.01C1960.55,1100.29 1959.01,1096.83 1958.65,1092.64Z" style="fill:white;fill-rule:nonzero;"/>
        <path d="M1958.83,1092.79C1959.21,1096.85 1960.74,1100.25 1963.38,1102.89C1966.06,1105.57 1970.96,1106.92 1977.95,1106.92C1981.93,1106.92 1985.27,1106.34 1987.88,1105.19C1990.48,1104.05 1992.54,1102.35 1993.99,1100.14C1995.43,1097.93 1996.17,1095.48 1996.17,1092.86C1996.17,1090.64 1995.62,1088.6 1994.54,1086.8C1993.45,1085 1991.69,1083.47 1989.3,1082.26C1986.9,1081.03 1982.85,1079.8 1977.29,1078.6C1974.97,1078.12 1973.54,1077.61 1972.91,1077.03C1972.25,1076.48 1971.92,1075.83 1971.92,1075.13C1971.92,1074.17 1972.32,1073.35 1973.11,1072.69C1973.89,1072.04 1975.06,1071.71 1976.59,1071.71C1978.43,1071.71 1979.9,1072.15 1980.95,1073.02C1981.98,1073.87 1982.67,1075.22 1983.01,1077.05L1994.79,1076.36C1994.25,1072.21 1992.6,1069.14 1989.91,1067.23C1987.16,1065.28 1983.11,1064.3 1977.86,1064.3C1973.58,1064.3 1970.16,1064.84 1967.71,1065.91C1965.27,1066.98 1963.41,1068.47 1962.2,1070.33C1960.99,1072.19 1960.37,1074.2 1960.37,1076.29C1960.37,1079.47 1961.57,1082.13 1963.94,1084.18C1966.31,1086.25 1970.34,1087.94 1975.91,1089.19C1979.41,1089.96 1981.59,1090.76 1982.56,1091.64C1983.54,1092.51 1984.03,1093.53 1984.03,1094.65C1984.03,1095.83 1983.51,1096.87 1982.49,1097.76C1981.47,1098.64 1980.01,1099.09 1978.14,1099.09C1975.65,1099.09 1973.7,1098.22 1972.35,1096.5C1971.54,1095.47 1971,1093.97 1970.72,1092.04L1958.83,1092.79ZM1977.95,1107.25C1970.87,1107.25 1965.89,1105.86 1963.15,1103.12C1960.42,1100.38 1958.85,1096.86 1958.49,1092.65C1958.48,1092.61 1958.5,1092.56 1958.53,1092.53C1958.56,1092.5 1958.6,1092.48 1958.64,1092.47L1970.85,1091.71C1970.95,1091.71 1971.01,1091.76 1971.02,1091.85C1971.28,1093.79 1971.82,1095.29 1972.61,1096.3C1973.89,1097.93 1975.75,1098.76 1978.14,1098.76C1979.93,1098.76 1981.32,1098.34 1982.27,1097.51C1983.22,1096.69 1983.7,1095.73 1983.7,1094.65C1983.7,1093.62 1983.25,1092.69 1982.34,1091.88C1981.42,1091.05 1979.24,1090.26 1975.84,1089.51C1970.21,1088.24 1966.14,1086.53 1963.73,1084.43C1961.29,1082.31 1960.05,1079.57 1960.05,1076.29C1960.05,1074.13 1960.68,1072.07 1961.93,1070.15C1963.18,1068.24 1965.08,1066.71 1967.58,1065.61C1970.07,1064.52 1973.53,1063.97 1977.86,1063.97C1983.18,1063.97 1987.29,1064.98 1990.1,1066.96C1992.91,1068.95 1994.6,1072.16 1995.13,1076.5C1995.14,1076.54 1995.13,1076.58 1995.1,1076.62C1995.07,1076.65 1995.03,1076.67 1994.98,1076.68L1982.88,1077.39C1982.8,1077.39 1982.73,1077.33 1982.71,1077.25C1982.4,1075.43 1981.74,1074.09 1980.75,1073.27C1979.75,1072.45 1978.35,1072.03 1976.59,1072.03C1975.14,1072.03 1974.04,1072.34 1973.32,1072.94C1972.6,1073.55 1972.24,1074.26 1972.24,1075.13C1972.24,1075.74 1972.53,1076.29 1973.12,1076.79C1973.71,1077.32 1975.13,1077.82 1977.36,1078.28C1982.95,1079.49 1987.02,1080.73 1989.45,1081.96C1991.89,1083.21 1993.7,1084.78 1994.82,1086.63C1995.93,1088.48 1996.5,1090.58 1996.5,1092.86C1996.5,1095.55 1995.74,1098.05 1994.26,1100.32C1992.78,1102.58 1990.67,1104.32 1988.01,1105.49C1985.36,1106.66 1981.97,1107.25 1977.95,1107.25Z" style="fill:white;fill-rule:nonzero;"/>
        <path d="M2030.45,1089.38L2041.69,1092.78C2040.94,1095.93 2039.75,1098.57 2038.12,1100.68C2036.5,1102.8 2034.48,1104.39 2032.07,1105.47C2029.67,1106.55 2026.6,1107.08 2022.88,1107.08C2018.37,1107.08 2014.68,1106.43 2011.82,1105.12C2008.96,1103.81 2006.49,1101.5 2004.41,1098.2C2002.33,1094.89 2001.29,1090.66 2001.29,1085.51C2001.29,1078.64 2003.12,1073.36 2006.77,1069.67C2010.43,1065.98 2015.6,1064.13 2022.29,1064.13C2027.52,1064.13 2031.63,1065.19 2034.62,1067.31C2037.62,1069.42 2039.84,1072.67 2041.3,1077.05L2029.96,1079.58C2029.57,1078.31 2029.15,1077.38 2028.72,1076.8C2028,1075.82 2027.12,1075.06 2026.08,1074.53C2025.04,1074 2023.88,1073.74 2022.6,1073.74C2019.69,1073.74 2017.46,1074.91 2015.91,1077.25C2014.74,1078.98 2014.15,1081.71 2014.15,1085.43C2014.15,1090.03 2014.85,1093.18 2016.25,1094.89C2017.65,1096.6 2019.61,1097.45 2022.14,1097.45C2024.6,1097.45 2026.45,1096.76 2027.71,1095.38C2028.97,1094.01 2029.88,1092 2030.45,1089.38Z" style="fill:white;fill-rule:nonzero;"/>
        <path d="M2022.29,1064.3C2015.68,1064.3 2010.5,1066.14 2006.89,1069.78C2003.28,1073.42 2001.45,1078.72 2001.45,1085.51C2001.45,1090.61 2002.5,1094.85 2004.55,1098.11C2006.6,1101.37 2009.07,1103.68 2011.88,1104.97C2014.71,1106.26 2018.41,1106.92 2022.88,1106.92C2026.56,1106.92 2029.63,1106.38 2032.01,1105.32C2034.38,1104.26 2036.39,1102.67 2037.99,1100.58C2039.57,1098.53 2040.75,1095.94 2041.5,1092.89L2030.57,1089.59C2029.99,1092.14 2029.07,1094.13 2027.83,1095.49C2026.55,1096.9 2024.63,1097.62 2022.14,1097.62C2019.57,1097.62 2017.55,1096.73 2016.12,1095C2014.71,1093.27 2013.99,1090.05 2013.99,1085.43C2013.99,1081.69 2014.59,1078.91 2015.77,1077.16C2017.35,1074.78 2019.64,1073.58 2022.6,1073.58C2023.9,1073.58 2025.1,1073.85 2026.16,1074.39C2027.21,1074.92 2028.12,1075.7 2028.85,1076.7C2029.27,1077.28 2029.69,1078.18 2030.07,1079.38L2041.08,1076.93C2039.65,1072.69 2037.44,1069.5 2034.53,1067.44C2031.58,1065.35 2027.46,1064.3 2022.29,1064.3ZM2022.88,1107.25C2018.36,1107.25 2014.62,1106.58 2011.75,1105.27C2008.87,1103.95 2006.35,1101.6 2004.27,1098.28C2002.18,1094.97 2001.13,1090.67 2001.13,1085.51C2001.13,1078.63 2002.99,1073.26 2006.66,1069.55C2010.33,1065.85 2015.58,1063.97 2022.29,1063.97C2027.53,1063.97 2031.71,1065.05 2034.72,1067.17C2037.73,1069.3 2039.99,1072.61 2041.45,1077C2041.47,1077.04 2041.46,1077.09 2041.44,1077.13C2041.42,1077.17 2041.38,1077.2 2041.33,1077.21L2030,1079.73C2029.92,1079.75 2029.83,1079.71 2029.81,1079.62C2029.42,1078.38 2029.01,1077.46 2028.59,1076.9C2027.89,1075.94 2027.02,1075.19 2026.01,1074.68C2025,1074.16 2023.85,1073.9 2022.6,1073.9C2019.76,1073.9 2017.56,1075.06 2016.05,1077.34C2014.9,1079.04 2014.32,1081.76 2014.32,1085.43C2014.32,1089.97 2015.01,1093.12 2016.38,1094.79C2017.74,1096.45 2019.68,1097.29 2022.14,1097.29C2024.54,1097.29 2026.37,1096.61 2027.59,1095.27C2028.82,1093.92 2029.73,1091.93 2030.29,1089.34C2030.29,1089.3 2030.32,1089.26 2030.36,1089.24C2030.4,1089.21 2030.45,1089.21 2030.49,1089.22L2041.74,1092.62C2041.82,1092.65 2041.87,1092.73 2041.85,1092.82C2041.09,1095.98 2039.88,1098.66 2038.25,1100.78C2036.62,1102.91 2034.56,1104.54 2032.14,1105.62C2029.72,1106.7 2026.61,1107.25 2022.88,1107.25Z" style="fill:white;fill-rule:nonzero;"/>
        <path d="M2047.98,1064.84L2060.82,1064.84L2060.82,1079.38L2074.84,1079.38L2074.84,1064.84L2087.73,1064.84L2087.73,1106.38L2074.84,1106.38L2074.84,1089.58L2060.82,1089.58L2060.82,1106.38L2047.98,1106.38L2047.98,1064.84Z" style="fill:white;fill-rule:nonzero;"/>
        <path d="M2075,1106.21L2087.57,1106.21L2087.57,1065L2075,1065L2075,1079.38C2075,1079.47 2074.93,1079.54 2074.84,1079.54L2060.82,1079.54C2060.73,1079.54 2060.65,1079.47 2060.65,1079.38L2060.65,1065L2048.15,1065L2048.15,1106.21L2060.65,1106.21L2060.65,1089.58C2060.65,1089.49 2060.73,1089.41 2060.82,1089.41L2074.84,1089.41C2074.93,1089.41 2075,1089.49 2075,1089.58L2075,1106.21ZM2087.73,1106.54L2074.84,1106.54C2074.75,1106.54 2074.68,1106.47 2074.68,1106.38L2074.68,1089.74L2060.98,1089.74L2060.98,1106.38C2060.98,1106.47 2060.91,1106.54 2060.82,1106.54L2047.98,1106.54C2047.89,1106.54 2047.82,1106.47 2047.82,1106.38L2047.82,1064.84C2047.82,1064.75 2047.89,1064.68 2047.98,1064.68L2060.82,1064.68C2060.91,1064.68 2060.98,1064.75 2060.98,1064.84L2060.98,1079.21L2074.68,1079.21L2074.68,1064.84C2074.68,1064.75 2074.75,1064.68 2074.84,1064.68L2087.73,1064.68C2087.82,1064.68 2087.9,1064.75 2087.9,1064.84L2087.9,1106.38C2087.9,1106.47 2087.82,1106.54 2087.73,1106.54Z" style="fill:white;fill-rule:nonzero;"/>
        <path d="M2107.48,1085.69C2107.48,1089.89 2108.26,1092.9 2109.82,1094.73C2111.38,1096.56 2113.5,1097.48 2116.18,1097.48C2118.94,1097.48 2121.07,1096.58 2122.58,1094.79C2124.09,1093 2124.85,1089.77 2124.85,1085.13C2124.85,1081.22 2124.06,1078.36 2122.48,1076.56C2120.9,1074.75 2118.77,1073.85 2116.06,1073.85C2113.48,1073.85 2111.4,1074.77 2109.83,1076.6C2108.26,1078.43 2107.48,1081.46 2107.48,1085.69ZM2094.65,1085.64C2094.65,1078.86 2096.53,1073.58 2100.31,1069.8C2104.09,1066.02 2109.35,1064.13 2116.09,1064.13C2123.01,1064.13 2128.33,1065.99 2132.07,1069.7C2135.81,1073.41 2137.68,1078.61 2137.68,1085.3C2137.68,1090.15 2136.87,1094.13 2135.23,1097.24C2133.6,1100.35 2131.24,1102.76 2128.15,1104.49C2125.06,1106.22 2121.21,1107.08 2116.6,1107.08C2111.92,1107.08 2108.04,1106.34 2104.97,1104.85C2101.9,1103.36 2099.42,1100.99 2097.51,1097.76C2095.6,1094.53 2094.65,1090.49 2094.65,1085.64Z" style="fill:white;fill-rule:nonzero;"/>
        <path d="M2116.06,1074.01C2113.54,1074.01 2111.48,1074.92 2109.96,1076.71C2108.42,1078.5 2107.64,1081.52 2107.64,1085.69C2107.64,1089.83 2108.42,1092.83 2109.94,1094.63C2111.46,1096.41 2113.56,1097.32 2116.18,1097.32C2118.87,1097.32 2120.98,1096.43 2122.46,1094.68C2123.93,1092.93 2124.68,1089.71 2124.68,1085.13C2124.68,1081.28 2123.9,1078.43 2122.36,1076.67C2120.82,1074.91 2118.7,1074.01 2116.06,1074.01ZM2116.18,1097.64C2113.46,1097.64 2111.28,1096.7 2109.69,1094.84C2108.12,1092.99 2107.32,1089.91 2107.32,1085.69C2107.32,1081.44 2108.12,1078.35 2109.71,1076.49C2111.3,1074.63 2113.44,1073.69 2116.06,1073.69C2118.8,1073.69 2121,1074.62 2122.61,1076.45C2124.2,1078.28 2125.01,1081.2 2125.01,1085.13C2125.01,1089.79 2124.24,1093.08 2122.71,1094.89C2121.17,1096.72 2118.97,1097.64 2116.18,1097.64ZM2116.09,1064.3C2109.43,1064.3 2104.16,1066.19 2100.43,1069.92C2096.7,1073.64 2094.81,1078.93 2094.81,1085.64C2094.81,1090.44 2095.76,1094.49 2097.65,1097.68C2099.53,1100.87 2102.02,1103.23 2105.04,1104.7C2108.08,1106.17 2111.97,1106.92 2116.6,1106.92C2121.16,1106.92 2125.02,1106.06 2128.07,1104.35C2131.11,1102.65 2133.48,1100.23 2135.09,1097.16C2136.7,1094.09 2137.52,1090.1 2137.52,1085.3C2137.52,1078.69 2135.65,1073.48 2131.96,1069.82C2128.27,1066.15 2122.93,1064.3 2116.09,1064.3ZM2116.6,1107.25C2111.92,1107.25 2107.98,1106.49 2104.9,1104.99C2101.82,1103.5 2099.28,1101.09 2097.37,1097.85C2095.45,1094.61 2094.48,1090.5 2094.48,1085.64C2094.48,1078.84 2096.4,1073.48 2100.2,1069.68C2103.99,1065.89 2109.34,1063.97 2116.09,1063.97C2123.02,1063.97 2128.43,1065.86 2132.19,1069.58C2135.94,1073.31 2137.85,1078.6 2137.85,1085.3C2137.85,1090.16 2137.01,1094.2 2135.38,1097.32C2133.74,1100.44 2131.33,1102.9 2128.23,1104.64C2125.13,1106.37 2121.22,1107.25 2116.6,1107.25Z" style="fill:white;fill-rule:nonzero;"/>
        <path d="M2155.82,1085.69C2155.82,1089.89 2156.59,1092.9 2158.15,1094.73C2159.71,1096.56 2161.83,1097.48 2164.51,1097.48C2167.27,1097.48 2169.4,1096.58 2170.92,1094.79C2172.43,1093 2173.18,1089.77 2173.18,1085.13C2173.18,1081.22 2172.39,1078.36 2170.82,1076.56C2169.24,1074.75 2167.1,1073.85 2164.4,1073.85C2161.81,1073.85 2159.73,1074.77 2158.17,1076.6C2156.6,1078.43 2155.82,1081.46 2155.82,1085.69ZM2142.98,1085.64C2142.98,1078.86 2144.87,1073.58 2148.65,1069.8C2152.42,1066.02 2157.68,1064.13 2164.43,1064.13C2171.34,1064.13 2176.67,1065.99 2180.41,1069.7C2184.15,1073.41 2186.02,1078.61 2186.02,1085.3C2186.02,1090.15 2185.2,1094.13 2183.57,1097.24C2181.93,1100.35 2179.57,1102.76 2176.48,1104.49C2173.4,1106.22 2169.55,1107.08 2164.94,1107.08C2160.25,1107.08 2156.38,1106.34 2153.31,1104.85C2150.24,1103.36 2147.75,1100.99 2145.84,1097.76C2143.93,1094.53 2142.98,1090.49 2142.98,1085.64Z" style="fill:white;fill-rule:nonzero;"/>
        <path d="M2164.4,1074.01C2161.87,1074.01 2159.82,1074.92 2158.29,1076.71C2156.76,1078.5 2155.98,1081.52 2155.98,1085.69C2155.98,1089.83 2156.75,1092.83 2158.28,1094.63C2159.8,1096.41 2161.89,1097.32 2164.51,1097.32C2167.21,1097.32 2169.32,1096.43 2170.79,1094.68C2172.27,1092.93 2173.02,1089.71 2173.02,1085.13C2173.02,1081.28 2172.24,1078.43 2170.69,1076.67C2169.16,1074.91 2167.04,1074.01 2164.4,1074.01ZM2164.51,1097.64C2161.79,1097.64 2159.61,1096.7 2158.03,1094.84C2156.45,1092.99 2155.65,1089.91 2155.65,1085.69C2155.65,1081.44 2156.46,1078.35 2158.04,1076.49C2159.64,1074.63 2161.77,1073.69 2164.4,1073.69C2167.14,1073.69 2169.34,1074.62 2170.94,1076.45C2172.54,1078.28 2173.35,1081.2 2173.35,1085.13C2173.35,1089.79 2172.57,1093.08 2171.04,1094.89C2169.5,1096.72 2167.31,1097.64 2164.51,1097.64ZM2164.43,1064.3C2157.76,1064.3 2152.49,1066.19 2148.76,1069.92C2145.03,1073.64 2143.14,1078.93 2143.14,1085.64C2143.14,1090.44 2144.1,1094.49 2145.98,1097.68C2147.87,1100.87 2150.35,1103.23 2153.38,1104.7C2156.41,1106.17 2160.3,1106.92 2164.94,1106.92C2169.5,1106.92 2173.35,1106.06 2176.4,1104.35C2179.45,1102.65 2181.81,1100.23 2183.42,1097.16C2185.04,1094.09 2185.85,1090.1 2185.85,1085.3C2185.85,1078.69 2183.98,1073.48 2180.29,1069.82C2176.6,1066.15 2171.26,1064.3 2164.43,1064.3ZM2164.94,1107.25C2160.25,1107.25 2156.31,1106.49 2153.24,1104.99C2150.15,1103.5 2147.62,1101.09 2145.7,1097.85C2143.79,1094.61 2142.82,1090.5 2142.82,1085.64C2142.82,1078.84 2144.74,1073.48 2148.53,1069.68C2152.32,1065.89 2157.67,1063.97 2164.43,1063.97C2171.35,1063.97 2176.77,1065.86 2180.52,1069.58C2184.28,1073.31 2186.18,1078.6 2186.18,1085.3C2186.18,1090.16 2185.35,1094.2 2183.71,1097.32C2182.07,1100.44 2179.67,1102.9 2176.56,1104.64C2173.46,1106.37 2169.55,1107.25 2164.94,1107.25Z" style="fill:white;fill-rule:nonzero;"/>
        <path d="M2192.93,1064.84L2205.76,1064.84L2205.76,1096.15L2225.79,1096.15L2225.79,1106.38L2192.93,1106.38L2192.93,1064.84Z" style="fill:white;fill-rule:nonzero;"/>
        <path d="M2193.09,1106.21L2225.63,1106.21L2225.63,1096.31L2205.76,1096.31C2205.67,1096.31 2205.6,1096.24 2205.6,1096.15L2205.6,1065L2193.09,1065L2193.09,1106.21ZM2225.79,1106.54L2192.93,1106.54C2192.84,1106.54 2192.77,1106.47 2192.77,1106.38L2192.77,1064.84C2192.77,1064.75 2192.84,1064.68 2192.93,1064.68L2205.76,1064.68C2205.85,1064.68 2205.93,1064.75 2205.93,1064.84L2205.93,1095.99L2225.79,1095.99C2225.88,1095.99 2225.96,1096.06 2225.96,1096.15L2225.96,1106.38C2225.96,1106.47 2225.88,1106.54 2225.79,1106.54Z" style="fill:white;fill-rule:nonzero;"/>
        <path d="M1708.36,1159.85L1651.36,1297.9L1634.53,1297.9L1634.53,1249.38L1674.14,1153.47C1675.34,1153.23 1676.54,1153.06 1677.76,1152.93C1679.47,1152.74 1681.2,1152.67 1682.96,1152.67C1684.72,1152.67 1686.45,1152.74 1688.14,1152.93C1695.49,1153.72 1702.35,1156.16 1708.36,1159.85Z" style="fill:rgb(195,227,244);fill-rule:nonzero;"/>
        <path d="M1727.73,1182.68L1680.15,1297.9L1665.4,1297.9L1718.81,1168.54C1722.55,1172.67 1725.6,1177.43 1727.73,1182.68Z" style="fill:rgb(195,227,244);fill-rule:nonzero;"/>
        <path d="M2082.92,1157.4L1978.32,1410.78L1977.88,1410.78L1977.88,1322.52L2046.04,1157.4L2082.92,1157.4Z" style="fill:rgb(195,227,244);fill-rule:nonzero;"/>
        <path d="M2111.69,1157.4L2007.11,1410.78L1992.36,1410.78L2096.96,1157.4L2111.69,1157.4Z" style="fill:rgb(195,227,244);fill-rule:nonzero;"/>
        <path d="M2205.1,1157.4L2100.48,1410.78L2063.6,1410.78L2168.2,1157.4L2205.1,1157.4Z" style="fill:rgb(195,227,244);fill-rule:nonzero;"/>
        <path d="M2206.15,1188.86L2206.15,1224.59L2129.27,1410.78L2114.52,1410.78L2206.15,1188.86Z" style="fill:rgb(195,227,244);fill-rule:nonzero;"/>
        <path d="M1710.53,881.535L1654.12,1018.15L1634.53,1018.15L1634.53,976.291L1677.08,873.256C1677.29,873.207 1677.54,873.183 1677.76,873.158C1679.47,872.987 1681.2,872.89 1682.96,872.89C1684.72,872.89 1686.43,872.987 1688.14,873.158C1696.42,874.062 1704.04,877.017 1710.53,881.535Z" style="fill:rgb(195,227,244);fill-rule:nonzero;"/>
        <path d="M1729.04,906.446L1682.91,1018.15L1668.16,1018.15L1720.67,890.986C1724.36,895.529 1727.21,900.755 1729.04,906.446Z" style="fill:rgb(195,227,244);fill-rule:nonzero;"/>
        <path d="M1880.12,886.396L1825.71,1018.15L1798.16,1018.15L1798.16,995.561L1848.76,872.963C1849.76,872.987 1850.76,873.06 1851.76,873.158C1862.73,874.33 1872.6,879.166 1880.12,886.396Z" style="fill:rgb(195,227,244);fill-rule:nonzero;"/>
        <path d="M1894.97,920.121L1854.5,1018.15L1839.75,1018.15L1889.2,898.362C1892.72,904.857 1894.8,912.258 1894.97,920.121Z" style="fill:rgb(195,227,244);fill-rule:nonzero;"/>
        <path d="M2040.69,883.733L1985.21,1018.15L1961.78,1018.15L1961.78,985.572L2008.28,872.938C2008.92,872.914 2009.55,872.89 2010.19,872.89C2011.95,872.89 2013.68,872.987 2015.39,873.158C2024.94,874.185 2033.63,877.97 2040.69,883.733Z" style="fill:rgb(195,227,244);fill-rule:nonzero;"/>
        <path d="M2057.74,912.16L2014,1018.15L1999.25,1018.15L2050.36,894.308C2053.95,899.607 2056.52,905.64 2057.74,912.16Z" style="fill:rgb(195,227,244);fill-rule:nonzero;"/>
        <path d="M2207.35,886.396L2152.96,1018.15L2125.41,1018.15L2125.41,995.537L2176.01,872.963C2177.04,872.987 2178.02,873.06 2179.02,873.158C2189.96,874.33 2199.85,879.166 2207.35,886.396Z" style="fill:rgb(195,227,244);fill-rule:nonzero;"/>
        <path d="M2222.22,920.121L2181.75,1018.15L2167,1018.15L2216.46,898.337C2219.97,904.833 2222.05,912.233 2222.22,920.121Z" style="fill:rgb(195,227,244);fill-rule:nonzero;"/>
        <path d="M2374.56,890.253L2321.76,1018.15L2289.04,1018.15L2289.04,1008.11L2344.65,873.427C2355.15,874.99 2364.52,879.923 2371.68,887.079C2372.71,888.104 2373.66,889.155 2374.56,890.253Z" style="fill:rgb(195,227,244);fill-rule:nonzero;"/>
        <path d="M2385.87,921.318L2385.87,932.602L2350.56,1018.15L2335.8,1018.15L2382.79,904.296C2384.79,909.596 2385.87,915.334 2385.87,921.318Z" style="fill:rgb(195,227,244);fill-rule:nonzero;"/>
        <path d="M2534.57,886.396L2480.19,1018.15L2452.64,1018.15L2452.64,995.561L2503.24,872.963C2504.24,872.987 2505.24,873.06 2506.24,873.158C2517.21,874.33 2527.05,879.142 2534.57,886.396Z" style="fill:rgb(195,227,244);fill-rule:nonzero;"/>
        <path d="M2549.45,920.121L2508.98,1018.15L2494.23,1018.15L2543.68,898.362C2547.2,904.857 2549.28,912.258 2549.45,920.121Z" style="fill:rgb(195,227,244);fill-rule:nonzero;"/>
        <path d="M1878.09,1164.34L1822.95,1297.9L1798.16,1297.9L1798.16,1268.62L1846.02,1152.69C1846.22,1152.67 1846.39,1152.67 1846.59,1152.67C1848.32,1152.67 1850.08,1152.74 1851.76,1152.93C1861.78,1153.99 1870.86,1158.11 1878.09,1164.34Z" style="fill:rgb(195,227,244);fill-rule:nonzero;"/>
        <path d="M1894.5,1194.3L1851.74,1297.9L1836.99,1297.9L1887.59,1175.35C1891.16,1181 1893.55,1187.42 1894.5,1194.3Z" style="fill:rgb(195,227,244);fill-rule:nonzero;"/>
        <path d="M2368.95,1164.34L2313.8,1297.9L2289.04,1297.9L2289.04,1268.6L2336.9,1152.69C2337.07,1152.67 2337.27,1152.67 2337.44,1152.67C2339.2,1152.67 2340.93,1152.74 2342.62,1152.93C2352.63,1153.99 2361.72,1158.11 2368.95,1164.34Z" style="fill:rgb(195,227,244);fill-rule:nonzero;"/>
        <path d="M2385.38,1194.28L2342.59,1297.9L2327.84,1297.9L2378.45,1175.33C2382.01,1180.97 2384.43,1187.39 2385.38,1194.28Z" style="fill:rgb(195,227,244);fill-rule:nonzero;"/>
        <path d="M2529.47,1161.87L2473.3,1297.9L2452.64,1297.9L2452.64,1258.63L2496.28,1152.91C2497.84,1152.74 2499.46,1152.67 2501.07,1152.67C2502.8,1152.67 2504.54,1152.74 2506.24,1152.93C2514.87,1153.84 2522.8,1157.04 2529.47,1161.87Z" style="fill:rgb(195,227,244);fill-rule:nonzero;"/>
        <path d="M2547.59,1187.71L2502.09,1297.9L2487.34,1297.9L2539.48,1171.64C2543.15,1176.38 2545.91,1181.83 2547.59,1187.71Z" style="fill:rgb(195,227,244);fill-rule:nonzero;"/>
        <path d="M1688.15,869.549L1688.15,1021.77L1677.77,1021.77L1677.77,869.549C1679.47,869.35 1681.21,869.255 1682.96,869.255C1684.71,869.255 1686.44,869.35 1688.15,869.549Z" style="fill:rgb(206,57,50);fill-rule:nonzero;"/>
        <rect x="1627.39" y="940.33" width="107.72" height="10.38" style="fill:rgb(206,57,50);"/>
        <rect x="1790.71" y="940.33" width="111.74" height="10.38" style="fill:rgb(206,57,50);"/>
        <path d="M1851.77,869.549L1851.77,1021.77L1841.39,1021.77L1841.39,869.549C1843.09,869.35 1844.83,869.255 1846.58,869.255C1848.33,869.255 1850.06,869.35 1851.77,869.549Z" style="fill:rgb(206,57,50);fill-rule:nonzero;"/>
        <rect x="1955.57" y="940.33" width="109.26" height="10.38" style="fill:rgb(206,57,50);"/>
        <path d="M2015.39,869.549L2015.39,1021.77L2005.01,1021.77L2005.01,869.549C2006.71,869.35 2008.45,869.255 2010.2,869.255C2011.95,869.255 2013.69,869.35 2015.39,869.549Z" style="fill:rgb(206,57,50);fill-rule:nonzero;"/>
        <rect x="2117.7" y="940.33" width="112.24" height="10.38" style="fill:rgb(206,57,50);"/>
        <path d="M2179.01,869.549L2179.01,1021.77L2168.63,1021.77L2168.63,869.549C2170.33,869.35 2172.07,869.255 2173.82,869.255C2175.57,869.255 2177.31,869.35 2179.01,869.549Z" style="fill:rgb(206,57,50);fill-rule:nonzero;"/>
        <path d="M2342.63,869.549L2342.63,1021.77L2332.25,1021.77L2332.25,869.549C2333.95,869.35 2335.69,869.255 2337.44,869.255C2339.19,869.255 2340.92,869.35 2342.63,869.549Z" style="fill:rgb(206,57,50);fill-rule:nonzero;"/>
        <rect x="2284.26" y="940.33" width="106.36" height="10.38" style="fill:rgb(206,57,50);"/>
        <rect x="2449.5" y="940.33" width="107.72" height="10.38" style="fill:rgb(206,57,50);"/>
        <path d="M2506.25,867.854L2506.25,1023.48L2495.87,1023.48L2495.87,867.854C2497.57,867.65 2499.31,867.553 2501.06,867.553C2502.81,867.553 2504.54,867.65 2506.25,867.854Z" style="fill:rgb(206,57,50);fill-rule:nonzero;"/>
        <path d="M1688.15,1148.7L1688.15,1302.17L1677.77,1302.17L1677.77,1148.7C1679.47,1148.5 1681.21,1148.4 1682.96,1148.4C1684.71,1148.4 1686.45,1148.5 1688.15,1148.7Z" style="fill:rgb(206,57,50);fill-rule:nonzero;"/>
        <rect x="1629.09" y="1220.09" width="107.73" height="10.38" style="fill:rgb(206,57,50);"/>
        <path d="M1851.77,1148.7L1851.77,1302.17L1841.39,1302.17L1841.39,1148.7C1843.09,1148.5 1844.83,1148.4 1846.58,1148.4C1848.33,1148.4 1850.07,1148.5 1851.77,1148.7Z" style="fill:rgb(206,57,50);fill-rule:nonzero;"/>
        <rect x="1792.71" y="1220.24" width="107.74" height="10.38" style="fill:rgb(206,57,50);"/>
        <rect x="2085.89" y="1151.77" width="12.241" height="259.01" style="fill:rgb(206,57,50);"/>
        <rect x="2105.16" y="1248.62" width="6.48" height="70.94" style="fill:rgb(206,57,50);"/>
        <rect x="2072.38" y="1248.62" width="6.481" height="70.94" style="fill:rgb(206,57,50);"/>
        <path d="M2506.25,1149.38L2506.25,1301.48L2495.87,1301.48L2495.87,1149.38C2497.57,1149.18 2499.31,1149.08 2501.06,1149.08C2502.81,1149.08 2504.54,1149.18 2506.25,1149.38Z" style="fill:rgb(206,57,50);fill-rule:nonzero;"/>
        <rect x="2446.65" y="1220.24" width="107.72" height="10.38" style="fill:rgb(206,57,50);"/>
        <path d="M2342.63,1149.38L2342.63,1301.48L2332.25,1301.48L2332.25,1149.38C2333.95,1149.18 2335.69,1149.08 2337.44,1149.08C2339.19,1149.08 2340.93,1149.18 2342.63,1149.38Z" style="fill:rgb(206,57,50);fill-rule:nonzero;"/>
        <rect x="2284.27" y="1220.24" width="106.35" height="10.38" style="fill:rgb(206,57,50);"/>
        <path d="M1431.59,1384.77C1400.82,1385.74 1376.49,1396.59 1356.74,1439.23C1337,1481.87 1326.95,1558.32 1351.15,1587.62C1384.35,1627.83 1471.83,1617.58 1495.82,1605.53C1536.6,1585.06 1531.29,1444.04 1500.6,1405.54C1483.29,1383.82 1449.54,1384.21 1431.59,1384.77Z" style="fill:rgb(165,35,162);fill-rule:nonzero;"/>
        <path d="M1485.04,1462.54C1496.36,1494.62 1514.83,1524.3 1550.56,1529.48C1583.85,1532.61 1606.46,1518.68 1628.23,1495.45C1635.36,1487.88 1626.61,1478.08 1617.87,1483.25C1616.79,1483.77 1614.71,1484.88 1613.53,1485.35C1566.7,1504.22 1549.71,1500.99 1521.09,1445.95C1510.72,1418.94 1474.92,1435.46 1485.04,1462.54Z" style="fill:rgb(249,147,112);fill-rule:nonzero;"/>
        <path d="M1493.16,1398.7C1493.16,1398.7 1510.2,1413.79 1534.23,1453.1C1558.26,1492.41 1580.02,1493.43 1609.16,1487.08C1609.16,1487.08 1608.48,1499.84 1620.71,1503.04C1620.71,1503.04 1590.17,1549.43 1528.88,1526.8C1467.59,1504.18 1493.16,1398.7 1493.16,1398.7Z" style="fill:rgb(22,51,86);fill-rule:nonzero;"/>
        <path d="M1632.1,1462.17C1634.96,1464.7 1628.8,1470.19 1628.67,1473.67C1634.3,1472.07 1639.51,1468.83 1639.55,1468.84C1644.91,1463.96 1650,1458.8 1654.85,1453.4C1665.25,1450.42 1646.47,1470.11 1644.9,1472.64C1644.92,1472.67 1644.94,1472.7 1644.97,1472.73C1651.52,1468.9 1657.88,1464.7 1663.85,1460C1675.37,1458.97 1649.86,1476.38 1647.64,1478.25C1647.65,1478.26 1647.65,1478.28 1647.66,1478.3C1654.43,1475.74 1660.9,1472.35 1666.92,1468.32C1678.34,1468.7 1651.54,1483.78 1648.61,1485.06L1648.61,1485.15C1654.22,1483.91 1659.68,1481.96 1664.99,1479.75C1675.67,1481.55 1650.5,1491.39 1647.76,1492.22C1646.21,1493.6 1636.18,1497.16 1623.32,1498.69C1619.11,1499.19 1611.53,1491.06 1613.13,1487.21C1616.59,1482.54 1628.18,1460.24 1632.1,1462.17Z" style="fill:rgb(249,147,112);fill-rule:nonzero;"/>
        <path d="M1397.19,1848.58C1391.21,1864.04 1372.55,1864.52 1373.53,1846.53C1374.67,1828.68 1378.1,1812.93 1379.47,1795.02C1384.32,1742.95 1429.09,1766.11 1397.19,1848.58Z" style="fill:rgb(249,147,112);fill-rule:nonzero;"/>
        <path d="M1397.19,1848.58C1423.38,1853.98 1429.66,1864.16 1430.88,1870.52C1430.88,1870.55 1430.89,1870.59 1430.9,1870.62C1431.42,1873.4 1428.97,1875.84 1426.18,1875.41L1368.73,1866.59C1368.02,1864.76 1367.78,1862.81 1367.84,1860.85C1368.09,1852.9 1373.67,1844.56 1373.67,1844.56C1373.67,1844.56 1384.45,1851.99 1397.19,1848.58Z" style="fill:rgb(235,86,72);fill-rule:nonzero;"/>
        <path d="M1430.88,1870.52L1367.84,1860.85C1367.78,1862.81 1368.02,1864.76 1368.73,1866.59L1426.18,1875.41C1428.97,1875.84 1431.42,1873.4 1430.9,1870.62L1430.88,1870.52Z" style="fill:rgb(206,57,50);fill-rule:nonzero;"/>
        <path d="M1414.28,1865.99C1414.13,1865.97 1413.99,1865.92 1413.86,1865.84C1413.3,1865.51 1413.12,1864.79 1413.45,1864.23C1416.89,1858.45 1421.85,1857.27 1422.06,1857.22C1422.69,1857.08 1423.32,1857.47 1423.47,1858.11C1423.61,1858.74 1423.22,1859.37 1422.58,1859.51C1422.39,1859.56 1418.37,1860.58 1415.47,1865.43C1415.22,1865.86 1414.74,1866.07 1414.28,1865.99Z" style="fill:rgb(232,192,166);fill-rule:nonzero;"/>
        <path d="M1405.4,1863.51C1405.29,1863.5 1405.18,1863.46 1405.07,1863.41C1404.48,1863.13 1404.24,1862.42 1404.52,1861.84C1407.73,1855.23 1414.12,1853 1414.39,1852.91C1415,1852.7 1415.67,1853.03 1415.88,1853.65C1416.09,1854.26 1415.76,1854.93 1415.15,1855.14C1415.09,1855.16 1409.41,1857.17 1406.64,1862.87C1406.41,1863.34 1405.9,1863.59 1405.4,1863.51Z" style="fill:rgb(232,192,166);fill-rule:nonzero;"/>
        <path d="M1395.3,1860.67C1395.18,1860.65 1395.05,1860.61 1394.93,1860.55C1394.36,1860.24 1394.14,1859.53 1394.44,1858.96C1397.96,1852.32 1404.01,1849.47 1404.27,1849.35C1404.86,1849.08 1405.56,1849.34 1405.83,1849.93C1406.1,1850.51 1405.84,1851.21 1405.25,1851.49C1405.2,1851.51 1399.66,1854.15 1396.53,1860.06C1396.29,1860.51 1395.79,1860.75 1395.3,1860.67Z" style="fill:rgb(232,192,166);fill-rule:nonzero;"/>
        <path d="M1536.52,1641.94C1531.9,1711.8 1523.19,1781.5 1513.61,1850.85C1511.38,1867.28 1491.74,1870.41 1489.92,1852.49C1488.28,1834.68 1488.79,1817.97 1487.37,1800.07C1484.09,1747.87 1479.45,1695.59 1473.65,1643.6C1469.66,1598.5 1538.11,1596.6 1536.52,1641.94Z" style="fill:rgb(249,147,112);fill-rule:nonzero;"/>
        <path d="M1353.35,1823.65C1396.05,1842.67 1426.06,1833.32 1426.06,1833.32C1427.3,1829.17 1428.55,1824.68 1429.79,1819.94C1430.01,1819.14 1430.22,1818.33 1430.43,1817.51C1445.94,1757.64 1461.86,1659.46 1462.28,1644.71L1462.29,1644.38C1464.45,1657.44 1473.58,1745.37 1468.65,1819.94C1468.53,1821.71 1468.41,1823.47 1468.28,1825.22C1468.08,1827.81 1467.86,1830.39 1467.63,1832.94C1467.63,1832.94 1502.65,1843.92 1536.56,1830.86C1537.09,1827.22 1537.6,1823.58 1538.08,1819.94C1552.26,1713.78 1545.71,1608.94 1527.93,1537.99C1527.93,1537.99 1459.65,1557.91 1389.38,1547.98C1377.98,1583.64 1378.79,1646.99 1377.85,1674.11C1376.13,1724.21 1371.58,1742.47 1357.99,1805.11C1357.66,1806.63 1357.29,1808.17 1356.9,1809.75C1355.81,1814.16 1354.55,1818.77 1353.35,1823.65Z" style="fill:rgb(58,114,170);fill-rule:nonzero;"/>
        <path d="M1513.61,1850.85C1540.32,1852.13 1548.1,1861.22 1550.29,1867.31C1550.3,1867.34 1550.31,1867.38 1550.32,1867.41C1551.27,1870.07 1549.23,1872.86 1546.41,1872.87L1488.28,1873.06C1487.3,1871.35 1486.76,1869.46 1486.52,1867.52C1485.53,1859.63 1489.78,1850.85 1489.78,1850.85C1489.78,1850.85 1501.55,1856.19 1513.61,1850.85Z" style="fill:rgb(235,86,72);fill-rule:nonzero;"/>
        <path d="M1550.29,1867.31L1486.52,1867.52C1486.76,1869.46 1487.3,1871.35 1488.28,1873.06L1546.41,1872.87C1549.23,1872.86 1551.27,1870.07 1550.32,1867.41L1550.29,1867.31Z" style="fill:rgb(206,57,50);fill-rule:nonzero;"/>
        <path d="M1533.19,1865.41C1533.04,1865.41 1532.9,1865.38 1532.75,1865.32C1532.15,1865.08 1531.86,1864.4 1532.1,1863.79C1534.61,1857.55 1539.32,1855.62 1539.52,1855.54C1540.12,1855.3 1540.81,1855.59 1541.05,1856.19C1541.29,1856.8 1540.99,1857.48 1540.39,1857.72C1540.21,1857.8 1536.39,1859.42 1534.28,1864.67C1534.1,1865.13 1533.66,1865.41 1533.19,1865.41Z" style="fill:rgb(232,192,166);fill-rule:nonzero;"/>
        <path d="M1524.04,1864.33C1523.92,1864.33 1523.8,1864.32 1523.69,1864.28C1523.07,1864.09 1522.72,1863.43 1522.91,1862.81C1525.06,1855.79 1531.02,1852.6 1531.28,1852.47C1531.85,1852.17 1532.56,1852.39 1532.86,1852.96C1533.17,1853.54 1532.94,1854.25 1532.37,1854.55C1532.32,1854.58 1527.02,1857.45 1525.16,1863.5C1525.01,1864.01 1524.54,1864.33 1524.04,1864.33Z" style="fill:rgb(232,192,166);fill-rule:nonzero;"/>
        <path d="M1513.62,1863.09C1513.49,1863.09 1513.36,1863.07 1513.24,1863.02C1512.62,1862.81 1512.29,1862.14 1512.51,1861.53C1514.95,1854.42 1520.49,1850.67 1520.72,1850.52C1521.26,1850.16 1521.99,1850.3 1522.35,1850.84C1522.71,1851.38 1522.57,1852.11 1522.03,1852.48C1521.98,1852.51 1516.91,1855.97 1514.73,1862.29C1514.57,1862.78 1514.11,1863.09 1513.62,1863.09Z" style="fill:rgb(232,192,166);fill-rule:nonzero;"/>
        <path d="M1539.53,1555.64C1539.53,1555.64 1459.97,1579.96 1377.65,1571.31C1379.58,1512.46 1365.3,1510.79 1375.11,1463.23C1385.78,1411.49 1419.62,1396.35 1419.62,1396.35C1446.82,1383.36 1476.03,1392.97 1476.03,1392.97C1498.22,1397.4 1517.61,1461.62 1526.23,1496.45C1533.05,1523.99 1539.53,1555.64 1539.53,1555.64Z" style="fill:rgb(29,63,112);fill-rule:nonzero;"/>
        <path d="M1468.91,1378.44L1468.99,1391.5C1468.99,1391.5 1468.94,1399.68 1459.37,1400.27C1444.87,1401.16 1440.42,1389.58 1440.42,1389.58C1440.42,1389.58 1441.46,1384.11 1441.23,1380.1L1468.91,1378.44Z" style="fill:rgb(249,147,112);fill-rule:nonzero;"/>
        <path d="M1440.28,1369.17C1440.32,1369.37 1440.99,1370.11 1441.32,1382.7C1453.33,1387.79 1466.51,1385.09 1468.93,1384.54C1469.12,1371.21 1468.06,1373.73 1468.32,1369.99C1467.96,1368.55 1439.66,1365.26 1440.28,1369.17Z" style="fill:rgb(229,125,97);fill-rule:nonzero;"/>
        <path d="M1385.45,1449.56C1370.5,1480.11 1362.27,1514.08 1383.61,1543.2C1404.71,1569.15 1430.49,1575.51 1462.32,1574.77C1472.71,1574.55 1473.58,1561.43 1463.76,1558.83C1462.63,1558.41 1460.38,1557.71 1459.22,1557.2C1412.94,1537.02 1403.34,1522.64 1422.55,1463.65C1434.55,1437.32 1397.67,1423.36 1385.45,1449.56Z" style="fill:rgb(249,147,112);fill-rule:nonzero;"/>
        <path d="M1434.03,1448.76C1431.68,1463.7 1417.25,1499.8 1417.25,1499.8C1413.2,1529.92 1455.58,1555.59 1455.58,1555.59C1448.05,1565.57 1451.45,1574.83 1451.45,1574.83C1335.15,1605.06 1327.13,1404.85 1431.49,1392.02C1431.49,1392.02 1437.76,1425 1434.03,1448.76Z" style="fill:rgb(22,51,86);fill-rule:nonzero;"/>
        <path d="M1458.03,1256.23C1458.03,1256.23 1466.76,1249.32 1473.94,1256.91C1481.12,1264.51 1475.59,1271.39 1484.01,1277.73C1492.43,1284.06 1497.1,1284.7 1496.23,1292.22C1495.36,1299.73 1489.99,1301.44 1493.89,1310.04C1492.33,1310.04 1438.01,1269.58 1458.03,1256.23Z" style="fill:rgb(140,66,37);fill-rule:nonzero;"/>
        <path d="M1498.78,1360.11C1488.44,1374.82 1469.83,1381.61 1453.92,1380.83C1447.31,1380.62 1440.92,1379.02 1435.26,1375.72L1435.24,1375.72C1411.99,1360.5 1399.7,1324.1 1407.71,1298.36C1413.28,1276.42 1440.18,1260.36 1460.75,1272.74C1471.31,1278.97 1476.92,1289.3 1483.64,1299.88C1485.96,1303.2 1490.1,1307.37 1493.88,1310.04C1508.53,1320.62 1511.83,1340.46 1498.78,1360.11Z" style="fill:rgb(249,147,112);fill-rule:nonzero;"/>
        <path d="M1465.68,1316.53C1466.66,1313.61 1462.04,1312.15 1461.15,1315.1C1460.18,1318.02 1464.8,1319.48 1465.68,1316.53Z" style="fill:rgb(193,98,86);fill-rule:nonzero;"/>
        <path d="M1484.84,1309.97C1485.82,1307.04 1481.2,1305.58 1480.31,1308.53C1479.34,1311.46 1483.96,1312.92 1484.84,1309.97Z" style="fill:rgb(193,98,86);fill-rule:nonzero;"/>
        <path d="M1471.38,1281.88C1459.49,1296.12 1440.65,1280.34 1443.27,1297.97C1444.72,1305.1 1431.29,1305.15 1430.3,1308.77C1429.32,1312.39 1432.17,1318.5 1429.94,1323.34C1427.72,1328.19 1413.86,1335.98 1413.86,1335.98C1419.76,1350.13 1419.68,1363.08 1438.83,1377.53C1437.61,1377 1436.41,1376.39 1435.26,1375.72L1435.24,1375.72C1408.12,1357.39 1395.17,1312 1414.42,1284.68C1427.41,1265.56 1457.19,1262.49 1471.38,1281.88Z" style="fill:rgb(229,125,97);fill-rule:nonzero;"/>
        <path d="M1480.75,1331.58C1479.63,1331.66 1477.34,1332.25 1477.33,1330.62C1477.41,1330.13 1477.86,1329.79 1478.35,1329.86C1481.52,1330.43 1488.41,1327.16 1484.59,1325.61C1479.26,1324.03 1470.39,1310.82 1475.54,1313.51C1475.58,1313.6 1480.36,1322.25 1485.18,1323.91C1491.24,1326.83 1485.04,1330.82 1480.75,1331.58Z" style="fill:rgb(193,98,86);fill-rule:nonzero;"/>
        <path d="M1468.27,1277.41C1468.27,1277.41 1473.39,1267.19 1464.27,1261.67C1455.16,1256.15 1453.96,1245.81 1443.23,1249.34C1432.5,1252.86 1428.61,1254.87 1416.11,1253.62C1403.62,1252.36 1395.37,1265.54 1397.08,1273.04C1398.78,1280.55 1382.72,1283.2 1382.01,1293.85C1381.31,1304.5 1384.21,1307.19 1384.95,1311.63C1385.68,1316.08 1372.62,1324.2 1377.11,1334.35C1381.59,1344.49 1390.21,1341.4 1393.04,1347.92C1395.87,1354.43 1392.56,1366.95 1401.04,1369.48C1413.61,1373.24 1422.38,1364.1 1422.38,1364.1C1393.48,1322.15 1431.2,1337.21 1423.98,1312.21C1420,1302.69 1435.16,1303.35 1437.75,1297.65C1440.35,1291.95 1436.85,1286.21 1442.99,1283.79C1449.14,1281.37 1455.49,1288.02 1468.27,1277.41Z" style="fill:rgb(140,66,37);fill-rule:nonzero;"/>
        <path d="M1399.62,1345.28C1406.33,1362.25 1427.07,1354.16 1420.52,1337.13C1413.81,1320.16 1393.07,1328.25 1399.62,1345.28Z" style="fill:rgb(249,147,112);fill-rule:nonzero;"/>
        <path d="M1405.8,1348C1405.42,1348.06 1405.03,1347.87 1404.85,1347.51C1398.99,1336.96 1404.31,1331.27 1412.18,1333.08C1413.32,1333.31 1412.94,1335.09 1411.81,1334.84C1405.05,1333.28 1401.57,1337.9 1406.46,1346.71C1406.74,1347.24 1406.39,1347.91 1405.8,1348Z" style="fill:rgb(193,98,86);fill-rule:nonzero;"/>
        <path d="M1413.88,1345.39C1412.24,1345.44 1410.28,1339.09 1403.32,1339.53C1402.82,1339.57 1402.38,1339.21 1402.33,1338.72C1402.28,1338.22 1402.63,1337.79 1403.14,1337.74C1409.94,1337.08 1416.59,1344.71 1413.88,1345.39Z" style="fill:rgb(193,98,86);fill-rule:nonzero;"/>
        <path d="M1455.03,1313.95C1454.85,1314.03 1454.65,1314.06 1454.44,1314.02C1453.89,1313.91 1453.52,1313.38 1453.62,1312.82C1453.67,1312.54 1454.99,1305.94 1463.57,1302.03C1464.12,1301.76 1464.7,1302.02 1464.93,1302.54C1465.17,1303.05 1464.94,1303.66 1464.42,1303.9C1456.86,1307.34 1455.69,1312.96 1455.64,1313.2C1455.57,1313.55 1455.34,1313.82 1455.03,1313.95Z" style="fill:rgb(193,98,86);fill-rule:nonzero;"/>
        <path d="M1482.27,1338.35C1482.43,1338.47 1482.55,1338.64 1482.61,1338.84C1482.79,1339.38 1482.5,1339.95 1481.97,1340.13C1481.7,1340.22 1475.29,1342.28 1467.7,1336.68C1467.2,1336.33 1467.15,1335.7 1467.48,1335.25C1467.82,1334.79 1468.46,1334.69 1468.92,1335.03C1475.61,1339.97 1481.09,1338.26 1481.32,1338.19C1481.66,1338.08 1482.01,1338.15 1482.27,1338.35Z" style="fill:rgb(193,98,86);fill-rule:nonzero;"/>
        <path d="M1483.17,1301.84C1482.79,1302 1482.34,1301.93 1482.03,1301.62C1478.27,1297.81 1474.03,1299.7 1473.86,1299.79C1473.31,1300.02 1472.73,1299.8 1472.49,1299.29C1472.25,1298.78 1472.47,1298.17 1472.98,1297.93C1474.93,1297 1479.65,1296.29 1483.49,1300.18C1483.89,1300.58 1483.89,1301.23 1483.48,1301.63C1483.39,1301.72 1483.28,1301.79 1483.17,1301.84Z" style="fill:rgb(193,98,86);fill-rule:nonzero;"/>
        <path d="M1488.77,1554.2C1488.98,1558.01 1480.74,1557.47 1478.17,1559.82C1483.25,1562.71 1489.22,1564.15 1489.23,1564.19C1496.47,1564.59 1503.72,1564.6 1510.97,1564.29C1520.39,1569.62 1493.18,1570.02 1490.27,1570.67C1490.27,1570.71 1490.26,1570.74 1490.26,1570.78C1497.58,1572.77 1505.04,1574.37 1512.57,1575.33C1521.38,1582.83 1491.08,1576.83 1488.2,1576.55C1488.19,1576.57 1488.18,1576.59 1488.17,1576.6C1494.74,1579.64 1501.69,1581.88 1508.79,1583.35C1516.51,1591.76 1486.97,1583.21 1484.01,1582.02C1483.99,1582.04 1483.97,1582.06 1483.95,1582.08C1488.77,1585.22 1493.98,1587.75 1499.28,1589.98C1505.48,1598.87 1480.82,1587.8 1478.31,1586.43C1476.24,1586.29 1466.67,1581.63 1456.57,1573.53C1453.26,1570.88 1453.75,1559.77 1457.61,1558.21C1463.38,1557.41 1487.4,1550.05 1488.77,1554.2Z" style="fill:rgb(249,147,112);fill-rule:nonzero;"/>
        <path d="M1353.35,1823.65C1396.05,1842.67 1426.06,1833.32 1426.06,1833.32C1427.3,1829.17 1428.55,1824.68 1429.79,1819.94C1429.79,1819.94 1392.49,1826.07 1356.9,1809.75C1355.81,1814.16 1354.55,1818.77 1353.35,1823.65Z" style="fill:rgb(35,101,155);fill-rule:nonzero;"/>
        <path d="M1462.29,1644.38C1462.29,1644.38 1469.47,1640.89 1473.48,1627.83C1473.48,1627.83 1491.07,1711.67 1479.67,1822.62C1511.26,1828.63 1538.08,1819.94 1538.08,1819.94C1537.6,1823.58 1537.09,1827.22 1536.56,1830.86C1502.65,1843.92 1467.63,1832.94 1467.63,1832.94C1468.02,1828.66 1468.36,1824.33 1468.65,1819.94C1473.58,1745.37 1464.45,1657.44 1462.29,1644.38Z" style="fill:rgb(35,101,155);fill-rule:nonzero;"/>
        <path d="M1431.49,1392.02C1431.49,1392.02 1453.76,1435.56 1419.5,1494.95C1419.5,1494.95 1428.72,1427.75 1419.5,1394.5C1419.5,1394.5 1421.05,1387.42 1431.49,1392.02Z" style="fill:rgb(206,74,191);fill-rule:nonzero;"/>
        <path d="M1476.03,1392.97C1476.03,1392.97 1510.74,1429.78 1524.45,1489.43C1524.45,1489.43 1524.45,1435.56 1493.16,1398.7C1493.16,1398.7 1485.54,1388.6 1476.03,1392.97Z" style="fill:rgb(206,74,191);fill-rule:nonzero;"/>
        <path d="M1440.58,1387.49L1431.49,1392.02C1431.49,1392.02 1436.67,1410.59 1458.59,1413.15L1461.37,1403.74L1467.07,1412.3C1467.07,1412.3 1477.83,1404.38 1476.03,1392.97L1468.99,1389.38C1468.99,1389.38 1467.54,1398.39 1460.03,1399.65C1452.53,1400.91 1445.09,1395.35 1440.58,1387.49Z" style="fill:rgb(244,212,190);fill-rule:nonzero;"/>
        <path d="M1768.07,1397.64C1737.4,1400.32 1713.71,1412.51 1696.37,1456.18C1679.03,1499.85 1673.25,1576.75 1699.04,1604.65C1734.44,1642.95 1821.21,1627.84 1844.5,1614.48C1884.07,1591.77 1870.91,1451.26 1838.13,1414.54C1819.63,1393.81 1785.96,1396.08 1768.07,1397.64Z" style="fill:rgb(165,35,162);fill-rule:nonzero;"/>
        <path d="M1956.5,1585.44L1964.48,1587.58L1968.47,1569.53L1945.19,1557.98L1956.5,1585.44Z" style="fill:rgb(249,147,112);fill-rule:nonzero;"/>
        <path d="M1895.46,1490.47C1917.46,1538.87 1963.11,1566.91 1963.11,1566.91C1954.34,1575.82 1956.5,1585.44 1956.5,1585.44C1878.76,1582.31 1780.82,1467.79 1827.27,1403.76C1827.27,1403.76 1858.58,1409.33 1895.46,1490.47Z" style="fill:rgb(22,51,86);fill-rule:nonzero;"/>
        <path d="M1996.2,1569.88C1995.9,1573.68 1987.8,1572.06 1984.95,1574.05C1989.61,1577.59 1995.34,1579.8 1995.35,1579.84C2002.47,1581.18 2009.66,1582.15 2016.89,1582.78C2025.52,1589.3 1998.5,1586.13 1995.53,1586.4C1995.52,1586.43 1995.51,1586.47 1995.5,1586.5C2002.5,1589.44 2009.68,1592 2017.03,1593.93C2024.78,1602.52 1995.52,1592.61 1992.7,1591.96C1992.69,1591.97 1992.68,1591.99 1992.67,1592C1998.79,1595.88 2005.38,1599.01 2012.23,1601.4C2018.78,1610.75 1990.62,1598.4 1987.84,1596.83C1987.81,1596.85 1987.79,1596.87 1987.77,1596.88C1992.13,1600.63 1996.97,1603.81 2001.94,1606.72C2006.92,1616.35 1983.92,1602.15 1981.6,1600.46C1979.57,1600.05 1970.7,1594.18 1961.74,1584.82C1958.81,1581.76 1960.74,1570.81 1964.78,1569.78C1970.6,1569.73 1995.38,1565.58 1996.2,1569.88Z" style="fill:rgb(249,147,112);fill-rule:nonzero;"/>
        <path d="M1667.13,1835.75C1654.43,1846.4 1637.87,1837.81 1647.41,1822.53C1657.03,1807.45 1667.64,1795.31 1677.48,1780.29C1706.87,1737.03 1734.89,1778.94 1667.13,1835.75Z" style="fill:rgb(249,147,112);fill-rule:nonzero;"/>
        <path d="M1667.13,1835.75C1687.46,1853.13 1688.04,1865.07 1686.04,1871.23C1686.03,1871.26 1686.02,1871.29 1686.01,1871.33C1685.13,1874.01 1681.81,1874.97 1679.57,1873.24L1633.51,1837.79C1633.78,1835.84 1634.51,1834.01 1635.51,1832.33C1639.56,1825.49 1648.48,1820.87 1648.48,1820.87C1648.48,1820.87 1654.33,1832.58 1667.13,1835.75Z" style="fill:rgb(235,86,72);fill-rule:nonzero;"/>
        <path d="M1686.04,1871.23L1635.51,1832.33C1634.51,1834.01 1633.78,1835.84 1633.51,1837.79L1679.57,1873.24C1681.81,1874.97 1685.13,1874.01 1686.01,1871.33L1686.04,1871.23Z" style="fill:rgb(206,57,50);fill-rule:nonzero;"/>
        <path d="M1673.69,1859.25C1673.58,1859.16 1673.48,1859.05 1673.4,1858.92C1673.07,1858.35 1673.26,1857.63 1673.82,1857.3C1679.63,1853.91 1684.54,1855.26 1684.74,1855.32C1685.36,1855.5 1685.73,1856.16 1685.55,1856.78C1685.37,1857.41 1684.72,1857.77 1684.09,1857.59C1683.9,1857.54 1679.89,1856.48 1675.01,1859.34C1674.58,1859.59 1674.06,1859.54 1673.69,1859.25Z" style="fill:rgb(232,192,166);fill-rule:nonzero;"/>
        <path d="M1667.11,1852.79C1667.02,1852.72 1666.94,1852.64 1666.87,1852.54C1666.5,1852.01 1666.63,1851.28 1667.16,1850.9C1673.16,1846.67 1679.83,1847.8 1680.11,1847.85C1680.75,1847.96 1681.17,1848.57 1681.06,1849.21C1680.95,1849.85 1680.34,1850.28 1679.7,1850.17C1679.64,1850.16 1673.69,1849.17 1668.52,1852.83C1668.08,1853.13 1667.51,1853.1 1667.11,1852.79Z" style="fill:rgb(232,192,166);fill-rule:nonzero;"/>
        <path d="M1659.65,1845.43C1659.54,1845.35 1659.46,1845.26 1659.38,1845.14C1659.03,1844.6 1659.18,1843.87 1659.72,1843.51C1666.01,1839.4 1672.68,1839.82 1672.96,1839.84C1673.61,1839.89 1674.1,1840.45 1674.05,1841.1C1674,1841.75 1673.44,1842.24 1672.79,1842.19C1672.73,1842.19 1666.61,1841.82 1661.01,1845.48C1660.58,1845.77 1660.03,1845.73 1659.65,1845.43Z" style="fill:rgb(232,192,166);fill-rule:nonzero;"/>
        <path d="M1869.3,1650.12C1864.67,1719.98 1855.97,1789.68 1846.39,1859.03C1844.16,1875.46 1824.52,1878.59 1822.7,1860.67C1821.06,1842.86 1821.57,1826.15 1820.15,1808.25C1816.87,1756.05 1812.22,1703.77 1806.43,1651.78C1802.44,1606.68 1870.89,1604.78 1869.3,1650.12Z" style="fill:rgb(249,147,112);fill-rule:nonzero;"/>
        <path d="M1867.36,1577.52C1867.36,1577.52 1788.22,1591.11 1716.76,1589.55C1705.36,1625.2 1706.73,1655.62 1701.66,1682.28C1694.07,1722.22 1671.1,1757.52 1657.31,1775.88C1650.92,1784.39 1646.5,1789.25 1646.5,1789.25C1668.38,1820.37 1701.66,1829.73 1701.66,1829.73C1705.54,1827.4 1709.27,1824.86 1712.85,1822.13C1777.43,1773.22 1794.66,1666.86 1795.06,1652.89L1795.07,1652.56C1797.22,1665.62 1806.36,1753.55 1801.43,1828.12C1801.31,1829.89 1801.19,1831.65 1801.05,1833.4C1800.86,1835.99 1800.64,1838.57 1800.41,1841.12C1800.41,1841.12 1835.42,1852.1 1869.34,1839.04C1869.87,1835.4 1870.38,1831.76 1870.86,1828.12C1885.04,1721.97 1885.15,1648.47 1867.36,1577.52Z" style="fill:rgb(58,114,170);fill-rule:nonzero;"/>
        <path d="M1846.39,1859.03C1873.1,1860.31 1880.88,1869.4 1883.07,1875.49C1883.08,1875.53 1883.09,1875.56 1883.1,1875.59C1884.05,1878.25 1882.01,1881.04 1879.19,1881.05L1821.06,1881.24C1820.08,1879.54 1819.54,1877.65 1819.3,1875.7C1818.31,1867.81 1822.55,1859.03 1822.55,1859.03C1822.55,1859.03 1834.33,1864.37 1846.39,1859.03Z" style="fill:rgb(235,86,72);fill-rule:nonzero;"/>
        <path d="M1883.07,1875.49L1819.3,1875.7C1819.54,1877.65 1820.08,1879.54 1821.06,1881.24L1879.19,1881.05C1882.01,1881.04 1884.05,1878.25 1883.1,1875.59L1883.07,1875.49Z" style="fill:rgb(206,57,50);fill-rule:nonzero;"/>
        <path d="M1865.97,1873.59C1865.82,1873.59 1865.67,1873.56 1865.53,1873.51C1864.93,1873.26 1864.64,1872.58 1864.88,1871.97C1867.38,1865.73 1872.1,1863.8 1872.3,1863.72C1872.9,1863.48 1873.58,1863.77 1873.83,1864.38C1874.07,1864.98 1873.77,1865.66 1873.17,1865.9C1872.99,1865.98 1869.17,1867.61 1867.06,1872.85C1866.88,1873.31 1866.44,1873.59 1865.97,1873.59Z" style="fill:rgb(232,192,166);fill-rule:nonzero;"/>
        <path d="M1856.81,1872.52C1856.7,1872.52 1856.58,1872.5 1856.47,1872.46C1855.85,1872.27 1855.5,1871.62 1855.69,1870.99C1857.84,1863.97 1863.8,1860.78 1864.06,1860.65C1864.63,1860.35 1865.34,1860.57 1865.64,1861.14C1865.94,1861.72 1865.72,1862.43 1865.15,1862.73C1865.1,1862.76 1859.79,1865.63 1857.94,1871.68C1857.79,1872.19 1857.32,1872.52 1856.81,1872.52Z" style="fill:rgb(232,192,166);fill-rule:nonzero;"/>
        <path d="M1846.4,1871.27C1846.27,1871.27 1846.14,1871.25 1846.02,1871.21C1845.4,1871 1845.07,1870.33 1845.29,1869.71C1847.73,1862.61 1853.27,1858.86 1853.5,1858.7C1854.04,1858.34 1854.77,1858.49 1855.13,1859.03C1855.49,1859.57 1855.35,1860.3 1854.81,1860.66C1854.76,1860.69 1849.69,1864.15 1847.51,1870.48C1847.34,1870.96 1846.89,1871.27 1846.4,1871.27Z" style="fill:rgb(232,192,166);fill-rule:nonzero;"/>
        <path d="M1795.07,1652.56C1795.07,1652.56 1802.25,1649.07 1806.26,1636.01C1806.26,1636.01 1823.85,1719.86 1812.44,1830.8C1844.04,1836.81 1870.86,1828.12 1870.86,1828.12C1870.38,1831.76 1869.87,1835.4 1869.34,1839.04C1835.42,1852.1 1800.41,1841.12 1800.41,1841.12C1800.8,1836.84 1801.14,1832.51 1801.43,1828.12C1806.36,1753.55 1797.22,1665.62 1795.07,1652.56Z" style="fill:rgb(35,101,155);fill-rule:nonzero;"/>
        <path d="M1869.33,1586.64C1795.77,1609.03 1716.76,1589.55 1716.76,1589.55C1706.27,1581.91 1704.69,1515.3 1711.5,1476.6C1720.62,1424.74 1753.78,1408.69 1753.78,1408.69C1780.41,1394.98 1809.62,1401.85 1809.62,1401.85C1831.77,1405.65 1853.91,1470.71 1862.44,1505.44C1869.74,1535.2 1878.37,1586.64 1869.33,1586.64Z" style="fill:rgb(29,63,112);fill-rule:nonzero;"/>
        <path d="M1765.05,1404.06C1765.05,1404.06 1772.28,1414.82 1781.35,1418.15C1790.42,1421.49 1795.81,1413.83 1795.81,1413.83C1795.81,1413.83 1799.86,1417.29 1806.36,1416.04C1812.85,1414.79 1809.62,1401.85 1809.62,1401.85C1809.62,1401.85 1790.77,1395.66 1765.05,1404.06Z" style="fill:rgb(244,212,190);fill-rule:nonzero;"/>
        <path d="M1802.06,1385.29L1802.64,1402.47C1802.64,1402.47 1802.82,1410.62 1793.34,1411.48C1778.98,1412.78 1774.2,1402.06 1774.2,1402.06L1774.48,1385.95L1802.06,1385.29Z" style="fill:rgb(249,147,112);fill-rule:nonzero;"/>
        <path d="M1774.48,1385.95L1774.29,1396.97C1786.35,1401.71 1800.01,1396.16 1802.38,1395.53C1802.2,1382.25 1801.22,1384.79 1801.37,1381.05C1801.02,1379.79 1774.48,1385.95 1774.48,1385.95Z" style="fill:rgb(229,125,97);fill-rule:nonzero;"/>
        <path d="M1805.33,1428.01C1805.42,1430.96 1803.09,1433.42 1800.14,1433.5C1797.19,1433.59 1794.74,1431.26 1794.65,1428.31C1794.57,1425.37 1796.89,1422.91 1799.84,1422.82C1802.79,1422.74 1805.25,1425.06 1805.33,1428.01Z" style="fill:rgb(22,51,86);fill-rule:nonzero;"/>
        <path d="M1810.88,1446.04C1810.96,1448.99 1808.64,1451.45 1805.69,1451.53C1802.74,1451.62 1800.28,1449.29 1800.2,1446.34C1800.11,1443.39 1802.43,1440.94 1805.38,1440.85C1808.33,1440.77 1810.79,1443.09 1810.88,1446.04Z" style="fill:rgb(22,51,86);fill-rule:nonzero;"/>
        <path d="M1817.68,1379.62C1826.92,1391.71 1842.57,1395.29 1852.62,1387.6C1862.68,1379.92 1863.34,1363.88 1854.09,1351.79C1844.85,1339.69 1829.21,1336.12 1819.15,1343.81C1809.09,1351.49 1808.43,1367.53 1817.68,1379.62Z" style="fill:rgb(102,41,72);fill-rule:nonzero;"/>
        <path d="M1806.4,1274.09C1805.62,1273.88 1804.83,1273.7 1804.03,1273.53C1785.96,1269.71 1764.89,1276.42 1750.73,1291.94L1809.46,1359.5L1811,1383.83C1811,1383.83 1833.69,1375.4 1843.37,1348.9C1852.86,1322.92 1846.25,1283.81 1806.4,1274.09Z" style="fill:rgb(102,41,72);fill-rule:nonzero;"/>
        <path d="M1791.43,1279.44C1791.43,1279.44 1769,1269.81 1751.76,1290.63C1734.53,1311.45 1736.72,1344.25 1747.43,1361.26L1791.43,1279.44Z" style="fill:rgb(102,41,72);fill-rule:nonzero;"/>
        <path d="M1829.11,1340.65C1827.2,1355.97 1822.68,1373.32 1811.02,1383.83L1811,1383.83C1806.29,1388.04 1800.46,1390.82 1794.23,1392.29C1758.79,1403.34 1716.01,1363.95 1742.57,1332.61C1752.32,1322.92 1753.87,1306.33 1761.58,1296.76C1769.05,1285.59 1782.31,1280.9 1795.38,1283.93C1820.43,1289.46 1831.35,1315.9 1829.11,1340.65Z" style="fill:rgb(249,147,112);fill-rule:nonzero;"/>
        <path d="M1770.65,1333.36C1770.04,1332.25 1770.44,1330.84 1771.55,1330.22C1772.67,1329.61 1774.07,1330.01 1774.69,1331.12C1775.31,1332.24 1774.9,1333.64 1773.79,1334.26C1772.67,1334.88 1771.27,1334.47 1770.65,1333.36Z" style="fill:rgb(193,98,86);fill-rule:nonzero;"/>
        <path d="M1751.16,1330.8C1750.54,1329.69 1750.94,1328.28 1752.05,1327.67C1753.17,1327.05 1754.57,1327.45 1755.19,1328.56C1755.81,1329.68 1755.41,1331.08 1754.29,1331.7C1753.18,1332.32 1751.77,1331.92 1751.16,1330.8Z" style="fill:rgb(193,98,86);fill-rule:nonzero;"/>
        <path d="M1752.94,1348.88C1752.46,1348.51 1752.09,1348.1 1751.88,1347.65C1751.6,1347.05 1751.2,1345.51 1753.52,1344.14C1757.79,1341.62 1760.67,1332.48 1760.7,1332.38C1760.84,1331.92 1761.33,1331.67 1761.79,1331.81C1762.25,1331.95 1762.51,1332.44 1762.36,1332.9C1762.24,1333.3 1759.26,1342.78 1754.41,1345.64C1753.86,1345.96 1753.25,1346.45 1753.46,1346.91C1754.08,1348.21 1758.27,1349.53 1761.16,1348.48C1761.61,1348.32 1762.12,1348.56 1762.28,1349.01C1762.44,1349.46 1762.21,1349.96 1761.75,1350.13C1758.99,1351.12 1754.96,1350.43 1752.94,1348.88Z" style="fill:rgb(193,98,86);fill-rule:nonzero;"/>
        <path d="M1829.11,1340.65C1828.99,1341.91 1828.84,1343.17 1828.65,1344.43C1828.49,1345.58 1828.28,1346.76 1828.06,1347.93C1828.02,1348.09 1827.99,1348.23 1827.97,1348.38C1827.72,1349.6 1827.47,1350.79 1827.22,1351.96C1827.03,1352.73 1826.85,1353.51 1826.65,1354.27C1826.44,1355.13 1826.21,1355.98 1825.97,1356.81C1825.16,1359.78 1824.25,1362.58 1823.23,1365.22C1822.54,1366.99 1821.8,1368.69 1821.02,1370.3C1818.35,1375.71 1815.07,1380.24 1811.02,1383.83L1811,1383.83C1817.37,1375.31 1820.86,1356.65 1820.86,1356.65L1817.41,1348.52C1763.92,1333.37 1766.92,1290.74 1766.92,1290.74C1768.64,1289.17 1770.46,1287.85 1772.4,1286.76C1773.7,1286.02 1775.05,1285.4 1776.45,1284.88C1776.57,1284.84 1776.71,1284.79 1776.85,1284.74C1780.06,1283.63 1783.54,1283.05 1787.31,1283.09C1789.87,1283.09 1792.55,1283.38 1795.38,1283.93C1801.93,1285.22 1807.8,1288.26 1812.72,1292.66C1812.92,1292.84 1813.1,1293.01 1813.3,1293.18C1816.83,1296.46 1819.87,1300.42 1822.32,1304.91C1827.75,1314.87 1830.34,1327.41 1829.11,1340.65Z" style="fill:rgb(229,125,97);fill-rule:nonzero;"/>
        <path d="M1772.4,1286.75C1772.4,1286.75 1769.66,1328.78 1817.6,1344.27L1834.24,1334.28C1834.24,1334.28 1846.38,1305.9 1826.13,1285.09C1811.74,1270.32 1783.22,1276.74 1772.4,1286.75Z" style="fill:rgb(102,41,72);fill-rule:nonzero;"/>
        <path d="M1839.06,1348C1837.78,1355.37 1831.93,1360.5 1826.01,1359.47C1820.08,1358.44 1816.31,1351.63 1817.6,1344.27C1818.88,1336.9 1824.72,1331.76 1830.65,1332.79C1836.57,1333.83 1840.34,1340.63 1839.06,1348Z" style="fill:rgb(249,147,112);fill-rule:nonzero;"/>
        <path d="M1833.13,1351.59C1832.86,1351.39 1832.73,1351.03 1832.82,1350.68C1834.2,1345.48 1834.02,1341.95 1832.29,1340.46C1829.99,1338.47 1825.49,1340.39 1825.45,1340.41C1825.01,1340.6 1824.49,1340.4 1824.3,1339.95C1824.11,1339.51 1824.31,1339 1824.75,1338.81C1824.98,1338.71 1830.29,1336.46 1833.43,1339.14C1835.73,1341.12 1836.1,1345.16 1834.51,1351.13C1834.38,1351.59 1833.9,1351.87 1833.44,1351.75C1833.32,1351.71 1833.22,1351.66 1833.13,1351.59Z" style="fill:rgb(193,98,86);fill-rule:nonzero;"/>
        <path d="M1824.94,1350.67C1824.65,1350.44 1824.52,1350.03 1824.66,1349.66C1824.78,1349.36 1827.6,1342.18 1834.25,1341.5C1834.73,1341.45 1835.16,1341.8 1835.21,1342.28C1835.26,1342.76 1834.91,1343.19 1834.43,1343.24C1828.84,1343.81 1826.32,1350.22 1826.29,1350.29C1826.12,1350.74 1825.61,1350.96 1825.16,1350.79C1825.08,1350.76 1825.01,1350.72 1824.94,1350.67Z" style="fill:rgb(193,98,86);fill-rule:nonzero;"/>
        <path d="M1829.81,1356.33C1829.85,1357.41 1829,1358.32 1827.92,1358.36C1826.84,1358.39 1825.93,1357.55 1825.89,1356.47C1825.86,1355.39 1826.7,1354.48 1827.78,1354.44C1828.86,1354.4 1829.77,1355.25 1829.81,1356.33Z" style="fill:rgb(244,212,190);fill-rule:nonzero;"/>
        <path d="M1767.23,1322.88C1767.02,1322.72 1766.88,1322.45 1766.89,1322.16C1766.91,1321.68 1767.31,1321.3 1767.8,1321.32C1776.56,1321.63 1780.9,1327.85 1781.08,1328.11C1781.35,1328.51 1781.25,1329.05 1780.85,1329.33C1780.45,1329.6 1779.91,1329.5 1779.64,1329.1C1779.6,1329.04 1775.59,1323.34 1767.73,1323.06C1767.54,1323.05 1767.37,1322.99 1767.23,1322.88Z" style="fill:rgb(193,98,86);fill-rule:nonzero;"/>
        <path d="M1749.51,1324.66C1749.16,1324.4 1749.06,1323.9 1749.29,1323.52C1752.81,1317.72 1760.19,1319.78 1760.26,1319.8C1760.73,1319.93 1760.99,1320.42 1760.86,1320.88C1760.73,1321.34 1760.24,1321.61 1759.78,1321.47C1759.52,1321.4 1753.6,1319.78 1750.79,1324.42C1750.54,1324.84 1750,1324.97 1749.59,1324.72C1749.56,1324.7 1749.53,1324.68 1749.51,1324.66Z" style="fill:rgb(193,98,86);fill-rule:nonzero;"/>
        <path d="M1822.76,1318.47C1823.97,1320.06 1821.06,1324.32 1816.27,1327.98C1811.47,1331.65 1806.6,1333.34 1805.38,1331.75C1804.17,1330.17 1807.08,1325.91 1811.88,1322.24C1816.67,1318.57 1821.55,1316.89 1822.76,1318.47Z" style="fill:rgb(252,180,180);fill-rule:nonzero;"/>
        <path d="M1814.63,1309.72C1815.85,1311.3 1812.94,1315.56 1808.14,1319.23C1803.34,1322.89 1798.47,1324.58 1797.26,1323C1796.05,1321.41 1798.95,1317.15 1803.75,1313.48C1808.55,1309.82 1813.42,1308.13 1814.63,1309.72Z" style="fill:rgb(252,180,180);fill-rule:nonzero;"/>
        <path d="M1765.05,1404.06C1765.05,1404.06 1775.22,1463.65 1732.34,1509.16C1732.34,1509.16 1754.66,1455.91 1751.95,1405.65C1751.95,1405.65 1758.14,1400.16 1765.05,1404.06Z" style="fill:rgb(206,74,191);fill-rule:nonzero;"/>
        <path d="M1695.44,1613.02L1698.97,1620.49L1715.31,1611.87L1709.07,1586.64L1695.44,1613.02Z" style="fill:rgb(249,147,112);fill-rule:nonzero;"/>
        <path d="M1809.62,1401.86C1809.62,1401.86 1843.6,1439.55 1860.61,1498.34C1860.61,1498.34 1861.83,1447.91 1827.27,1403.76C1827.27,1403.76 1818.88,1396.96 1809.62,1401.86Z" style="fill:rgb(206,74,191);fill-rule:nonzero;"/>
        <path d="M1724.08,1523.71C1707.75,1549.34 1713.85,1606.08 1713.85,1606.08C1701.38,1605.16 1695.44,1613.02 1695.44,1613.02C1647.57,1551.68 1673.07,1411.59 1751.95,1405.65C1751.95,1405.65 1759.45,1468.18 1724.08,1523.71Z" style="fill:rgb(22,51,86);fill-rule:nonzero;"/>
        <path d="M1732.97,1633.25C1729.88,1635.48 1725.88,1628.26 1722.51,1627.37C1722.83,1633.21 1724.84,1639.01 1724.82,1639.04C1728.4,1645.35 1732.31,1651.45 1736.5,1657.38C1737.11,1668.18 1722.06,1645.52 1719.93,1643.42C1719.9,1643.44 1719.87,1643.45 1719.83,1643.47C1722.12,1650.71 1724.81,1657.84 1728.08,1664.69C1726.54,1676.16 1715.19,1647.43 1713.86,1644.86L1713.81,1644.86C1714.81,1652.03 1716.68,1659.09 1719.28,1665.85C1716.39,1676.9 1707.6,1647.43 1707,1644.29C1706.97,1644.29 1706.94,1644.28 1706.92,1644.28C1706.88,1650.03 1707.58,1655.78 1708.57,1661.45C1704.44,1671.47 1700.41,1644.74 1700.21,1641.88C1699.21,1640.07 1697.95,1629.5 1699.3,1616.62C1699.74,1612.4 1709.34,1606.8 1712.74,1609.21C1716.54,1613.63 1735.72,1629.85 1732.97,1633.25Z" style="fill:rgb(249,147,112);fill-rule:nonzero;"/>
        <path d="M1756.33,1361.27L1774.2,1352.14C1775.83,1362.98 1764.52,1369.91 1756.33,1361.27Z" style="fill:rgb(249,248,243);fill-rule:nonzero;"/>
        <path d="M1756.33,1362.05C1755.54,1362.08 1755.24,1360.91 1755.97,1360.57C1756.45,1360.77 1774.94,1349.83 1774.89,1351.78C1775.09,1352.17 1774.94,1352.64 1774.55,1352.83C1774.13,1352.95 1756.8,1362.09 1756.33,1362.05Z" style="fill:rgb(193,98,86);fill-rule:nonzero;"/>
        <path d="M1712.85,1822.13C1709.27,1824.86 1705.54,1827.4 1701.66,1829.73C1701.66,1829.73 1668.38,1820.37 1646.5,1789.25C1646.5,1789.25 1650.92,1784.39 1657.31,1775.88C1666.16,1789.21 1682.4,1806.86 1712.85,1822.13Z" style="fill:rgb(35,101,155);fill-rule:nonzero;"/>
        <rect x="525.45" y="847.54" width="237.695" height="14.637" style="fill:rgb(29,63,112);"/>
        <rect x="748.508" y="847.54" width="14.637" height="237.7" style="fill:rgb(29,63,112);"/>
        <path d="M778.171,1148.85L733.481,1148.85C724.751,1148.85 717.674,1141.78 717.674,1133.05L717.674,982.195C717.674,973.465 724.751,966.388 733.481,966.388L778.171,966.388C786.901,966.388 793.979,973.465 793.979,982.195L793.979,1133.05C793.979,1141.78 786.901,1148.85 778.171,1148.85Z" style="fill:rgb(29,63,112);fill-rule:nonzero;"/>
        <path d="M1188.99,1403.98C1182.52,1414.93 1170.55,1422.23 1156.92,1422.1L1155,1422.07L1154.99,1422.07L1154.99,1348.4L1157.64,1348.5C1177.96,1348.69 1194.28,1365.33 1194.08,1385.66C1194.01,1392.35 1192.16,1398.61 1188.99,1403.98Z" style="fill:rgb(247,147,30);fill-rule:nonzero;"/>
        <path d="M1188.99,1403.98C1182.52,1414.93 1170.55,1422.23 1156.92,1422.1L1155,1422.07C1155.5,1421.83 1177.38,1411.05 1179.28,1387.64C1181.2,1363.95 1154.99,1348.4 1154.99,1348.4L1157.64,1348.5C1177.96,1348.69 1194.28,1365.33 1194.08,1385.66C1194.01,1392.35 1192.16,1398.61 1188.99,1403.98Z" style="fill:rgb(255,194,97);fill-rule:nonzero;"/>
        <path d="M1163.04,1348.95L1163.04,1554.71C1163.04,1564.1 1160.06,1572.81 1154.99,1579.93C1154.71,1580.32 1154.43,1580.71 1154.13,1581.09C1146.18,1591.51 1133.63,1598.24 1119.51,1598.24L1071.66,1598.24C1071.66,1597.78 1071.67,1597.31 1071.67,1596.85L1071.67,1596.8C1071.67,1510.7 1001.87,1440.9 915.77,1440.9C915.072,1440.9 914.375,1440.92 913.677,1440.93C828.532,1443.44 759.88,1597.76 759.88,1598.24L538.51,1598.24L0,1598.23L0,806.88L564.63,806.88C587.49,806.88 606.15,824.91 607.14,847.54C607.18,848.17 607.19,848.8 607.19,849.44L607.22,862.18L607.31,899.95L612.1,899.95C628.16,899.95 642.89,908.87 650.32,923.12L655.62,945.79L657.11,952.18L657.17,952.42L661.25,969.79L661.25,969.8L688.44,1085.62L698.79,1129.72L709.59,1175.7L713.38,1191.85L1087.8,1233.87C1130.74,1240.2 1162.83,1276.87 1163.03,1320.27C1163.04,1320.38 1163.04,1333.88 1163.04,1348.95Z" style="fill:rgb(251,176,59);fill-rule:nonzero;"/>
        <path d="M1072.23,1596.8C1072.23,1683.21 1002.18,1753.26 915.769,1753.26C829.356,1753.26 759.306,1683.21 759.306,1596.8C759.306,1510.39 829.356,1440.34 915.769,1440.34C1002.18,1440.34 1072.23,1510.39 1072.23,1596.8Z" style="fill:rgb(29,63,112);fill-rule:nonzero;"/>
        <path d="M985.718,1596.8C985.718,1635.43 954.401,1666.75 915.769,1666.75C877.136,1666.75 845.819,1635.43 845.819,1596.8C845.819,1558.17 877.136,1526.85 915.769,1526.85C954.401,1526.85 985.718,1558.17 985.718,1596.8Z" style="fill:rgb(16,54,99);fill-rule:nonzero;"/>
        <path d="M719.82,826.83L719.82,880C719.82,891.02 710.89,899.95 699.87,899.95L0,899.95L0,806.88L699.87,806.88C710.89,806.88 719.82,815.81 719.82,826.83Z" style="fill:rgb(247,147,30);fill-rule:nonzero;"/>
        <path d="M613.132,1172.79L613.132,955.957C613.132,945.429 621.666,936.895 632.193,936.895L653.535,936.895L713.381,1191.85L632.193,1191.85C621.666,1191.85 613.132,1183.32 613.132,1172.79Z" style="fill:rgb(247,147,30);fill-rule:nonzero;"/>
        <path d="M709.81,1175.45C709.29,1176.12 708.45,1176.56 707.51,1176.56L639.34,1176.56C633.31,1176.56 628.42,1171.67 628.42,1165.64L628.42,960.67C628.42,955.98 632.22,952.18 636.91,952.18L656.02,952.18C657.38,952.18 658.57,953.12 658.89,954.45L661.92,967.32L689.17,1082.93L699.54,1126.97L710.37,1172.88C710.38,1172.92 710.38,1172.94 710.38,1172.94C710.4,1173.02 710.42,1173.11 710.43,1173.19C710.55,1174.03 710.3,1174.83 709.81,1175.45Z" style="fill:rgb(82,127,191);fill-rule:nonzero;"/>
        <path d="M317.353,1534.96L317.353,960.287C317.353,947.368 327.826,936.895 340.745,936.895L552.472,936.895C565.391,936.895 575.864,947.368 575.864,960.287L575.864,1534.96C575.864,1547.88 565.391,1558.35 552.472,1558.35L340.745,1558.35C327.826,1558.35 317.353,1547.88 317.353,1534.96Z" style="fill:rgb(247,147,30);fill-rule:nonzero;"/>
        <path d="M439.29,970.894L439.29,1227.92C439.29,1233.14 437.15,1237.86 433.703,1241.26C430.324,1244.59 425.692,1246.64 420.579,1246.64L351.207,1246.64C340.941,1246.56 332.641,1238.21 332.641,1227.92L332.641,970.894C332.641,960.56 341.018,952.182 351.352,952.182L420.579,952.182C426.052,952.182 430.981,954.536 434.406,958.282C437.44,961.606 439.29,966.032 439.29,970.894Z" style="fill:rgb(82,127,191);fill-rule:nonzero;"/>
        <path d="M560.576,970.894L560.576,1227.92C560.576,1238.25 552.199,1246.64 541.865,1246.64L472.638,1246.64C466.554,1246.64 461.143,1243.73 457.726,1239.22C455.341,1236.08 453.927,1232.17 453.927,1227.92L453.927,970.894C453.927,960.56 462.305,952.182 472.638,952.182L541.865,952.182C552.199,952.182 560.576,960.56 560.576,970.894Z" style="fill:rgb(82,127,191);fill-rule:nonzero;"/>
        <rect x="439.29" y="945.525" width="14.636" height="602.225" style="fill:rgb(247,147,30);"/>
        <path d="M8.231,1164.72L8.231,964.023C8.231,949.041 20.377,936.895 35.36,936.895L254.075,936.895C269.058,936.895 281.203,949.041 281.203,964.023L281.203,1164.72C281.203,1179.7 269.058,1191.85 254.075,1191.85L35.36,1191.85C20.377,1191.85 8.231,1179.7 8.231,1164.72Z" style="fill:rgb(247,147,30);fill-rule:nonzero;"/>
        <path d="M265.914,971.681L265.914,1157.06C265.914,1167.83 257.185,1176.56 246.423,1176.56L43.015,1176.56C32.245,1176.56 23.516,1167.83 23.516,1157.06L23.516,971.681C23.516,960.911 32.245,952.182 43.015,952.182L246.423,952.182C257.185,952.182 265.914,960.911 265.914,971.681Z" style="fill:rgb(82,127,191);fill-rule:nonzero;"/>
        <rect x="0" y="1241.77" width="281.2" height="14.64" style="fill:rgb(247,147,30);"/>
        <rect x="0" y="1387.33" width="281.2" height="14.64" style="fill:rgb(247,147,30);"/>
        <rect x="0" y="1314.55" width="281.2" height="14.64" style="fill:rgb(247,147,30);"/>
        <path d="M545.75,1540.72L347.466,1540.72C342.295,1540.72 338.104,1536.53 338.104,1531.36L338.104,1272.58C338.104,1267.41 342.295,1263.21 347.466,1263.21L545.75,1263.21C550.921,1263.21 555.113,1267.41 555.113,1272.58L555.113,1531.36C555.113,1536.53 550.921,1540.72 545.75,1540.72Z" style="fill:rgb(251,176,59);fill-rule:nonzero;"/>
        <path d="M1134.54,1621.97C1132.99,1622.29 1131.39,1622.46 1129.75,1622.48L1098.53,1622.91C1083.93,1623.11 1071.89,1611.45 1071.67,1596.85L1071.67,1596.8C1071.67,1510.7 1001.87,1440.9 915.77,1440.9C836.19,1440.9 760.34,1500.16 758.28,1596.49C757.99,1610.07 746.91,1620.93 733.33,1620.93L633.9,1620.93C617.07,1620.93 605.09,1604.62 610.06,1588.55C629.9,1524.49 689.01,1385.09 833.79,1354.15C1026.42,1312.99 1141.01,1459.71 1155.73,1593.12C1157.27,1607.02 1147.76,1619.38 1134.54,1621.97Z" style="fill:rgb(251,176,59);fill-rule:nonzero;"/>
        <path d="M434.406,958.282C437.44,961.606 439.29,966.032 439.29,970.894L439.29,1144.53L409.832,1246.64L351.207,1246.64L434.406,958.282Z" style="fill:rgb(115,166,216);fill-rule:nonzero;"/>
        <path d="M494.789,952.182L453.927,1093.8L453.927,970.894C453.927,960.56 462.305,952.182 472.638,952.182L494.789,952.182Z" style="fill:rgb(115,166,216);fill-rule:nonzero;"/>
        <path d="M540.52,952.182L457.726,1239.22C455.341,1236.08 453.927,1232.17 453.927,1227.92L453.927,1171.17L517.107,952.182L540.52,952.182Z" style="fill:rgb(115,166,216);fill-rule:nonzero;"/>
        <path d="M179.596,952.182L114.856,1176.56L56.238,1176.56L120.979,952.182L179.596,952.182Z" style="fill:rgb(115,166,216);fill-rule:nonzero;"/>
        <path d="M225.334,952.182L160.61,1176.56L137.183,1176.56L201.923,952.182L225.334,952.182Z" style="fill:rgb(115,166,216);fill-rule:nonzero;"/>
        <path d="M689.169,1082.93L663.755,1176.56L639.172,1176.56C633.233,1176.56 628.419,1171.75 628.419,1165.81L628.419,1090.77L661.921,967.316C679.809,1037.94 689.169,1082.93 689.169,1082.93Z" style="fill:rgb(115,166,216);fill-rule:nonzero;"/>
        <path d="M709.81,1175.45C709.29,1176.12 708.45,1176.56 707.51,1176.56L686.08,1176.56L699.54,1126.97C706.6,1152.77 710.15,1171.72 710.37,1172.88C710.38,1172.92 710.38,1172.94 710.38,1172.94C710.4,1173.02 710.42,1173.11 710.43,1173.19C710.55,1174.03 710.3,1174.83 709.81,1175.45Z" style="fill:rgb(115,166,216);fill-rule:nonzero;"/>
        <rect x="16.122" y="1010.6" width="257.191" height="14.64" style="fill:rgb(247,147,30);"/>
        <path d="M1134.54,1621.97C1132.18,1594.28 1123.13,1527.82 1089.17,1472.49C1042.54,1396.52 910.799,1340.59 807.99,1398.7C689.169,1465.86 664,1620.93 664,1620.93L633.9,1620.93C617.07,1620.93 605.09,1604.62 610.06,1588.55C629.9,1524.49 689.01,1385.09 833.79,1354.15C1026.42,1312.99 1141.01,1459.71 1155.73,1593.12C1157.27,1607.02 1147.76,1619.38 1134.54,1621.97Z" style="fill:rgb(247,147,30);fill-rule:nonzero;"/>
    </g>
</svg>
