<?xml version="1.0" encoding="UTF-8" standalone="no"?>
<!DOCTYPE svg PUBLIC "-//W3C//DTD SVG 1.1//EN" "http://www.w3.org/Graphics/SVG/1.1/DTD/svg11.dtd">
<svg width="100%" height="100%" viewBox="0 0 500 500" version="1.1" xmlns="http://www.w3.org/2000/svg" xmlns:xlink="http://www.w3.org/1999/xlink" xml:space="preserve" xmlns:serif="http://www.serif.com/" style="fill-rule:evenodd;clip-rule:evenodd;stroke-linejoin:round;stroke-miterlimit:2;">
    <g>
        <rect x="0" y="0" width="500" height="500" style="fill:rgb(173,224,196);fill-rule:nonzero;"/>
        <path d="M189.092,412.078C187.196,398 197.852,376.166 212.342,374.324C226.832,372.483 234.75,384.942 239.25,398.192C241.823,383.243 251.221,372.38 259.195,361.419C267.169,350.458 278.897,341.729 292.29,339.641C305.683,337.552 320.561,343.094 327.503,354.735C332.693,363.439 333.02,374.365 330.604,384.208C328.188,394.05 324.463,402.603 318.419,411.963" style="fill:rgb(240,149,176);fill-rule:nonzero;"/>
        <path d="M159.203,412.206C159.167,412.07 155.599,398.438 154.764,381.369C154.272,371.335 154.807,362.089 156.352,353.887C158.289,343.607 161.828,334.946 166.871,328.142C175.697,316.233 189.196,309.868 206.993,309.224C220.201,308.746 232.437,313.879 243.353,324.482C252.049,332.93 259.931,344.852 266.779,359.916C278.422,385.525 283.109,411.73 283.155,411.992L282.171,412.165C282.125,411.904 277.455,385.809 265.861,360.313C259.064,345.367 251.256,333.551 242.65,325.193C231.939,314.792 219.955,309.752 207.029,310.223C189.551,310.855 176.311,317.085 167.674,328.737C162.722,335.419 159.243,343.943 157.335,354.072C155.804,362.197 155.275,371.364 155.762,381.32C156.592,398.286 160.134,411.815 160.169,411.95L159.203,412.206Z" style="fill:white;fill-rule:nonzero;"/>
        <path d="M145.419,412.078C145.265,395.567 150.792,378.411 162.491,366.76C174.19,355.108 192.418,349.643 208.002,355.097C219.043,358.961 227.835,367.712 233.981,377.665C240.126,387.617 246.043,400.998 249.792,412.078" style="fill:rgb(237,109,45);fill-rule:nonzero;"/>
        <path d="M299.281,412.078C299.281,412.078 328.874,315.021 354.95,367.59C354.95,367.59 364.659,330.097 384.462,330.957C403.502,331.785 400.481,372.143 400.481,372.143C400.481,372.143 437.734,328.681 441.046,411.879L299.281,412.078Z" style="fill:white;fill-rule:nonzero;"/>
        <path d="M177.23,89.165C177.755,94.305 173.544,99.457 168.403,99.964C163.672,100.431 159.167,97.479 154.415,97.614C149.003,97.768 144.241,102.256 143.059,107.539C141.877,112.822 143.937,118.525 147.695,122.421C151.453,126.318 156.713,128.534 162.064,129.35C167.416,130.165 172.886,129.671 178.225,128.776" style="fill:rgb(38,38,38);fill-rule:nonzero;"/>
        <path d="M198.097,92.712C197.119,96.942 198.533,101.381 200.586,105.207C202.64,109.031 205.337,112.495 207.235,116.399C209.133,120.304 210.186,124.907 208.705,128.988C206.61,134.761 199.567,137.849 193.6,136.399C187.633,134.949 183.035,129.717 181.285,123.831" style="fill:rgb(38,38,38);fill-rule:nonzero;"/>
        <path d="M166.684,123.136L167.302,131.588L188.024,133.915L186.679,127.207L187.54,112.2L174.994,100.452L166.684,123.136Z" style="fill:rgb(255,183,143);fill-rule:nonzero;"/>
        <path d="M179.303,110.696C180.149,115.316 183.056,119.463 186.977,122.028L187.513,112.653L183.774,109.131C182.275,109.654 180.832,110.175 179.303,110.696Z" style="fill:rgb(38,38,38);fill-rule:nonzero;"/>
        <path d="M201.89,89.983L201.914,90.11C201.965,90.393 202.013,90.677 202.059,90.966C203.462,100.026 200.827,111.092 195.542,114.781C186.025,121.421 178.596,111.817 178.596,111.817L174.212,94.668L173.98,93.752C173.98,93.752 173.982,93.735 173.988,93.7C173.998,93.623 174.021,93.465 174.058,93.243C174.096,93.002 174.155,92.685 174.233,92.302C174.729,89.946 176.101,85.217 179.527,81.801C182.147,79.187 185.97,77.336 191.524,77.915C191.584,77.919 191.646,77.927 191.706,77.933C192.355,78.006 192.974,78.136 193.561,78.319C193.789,78.389 194.01,78.468 194.226,78.555C198.089,80.081 200.48,83.995 201.622,88.745C201.72,89.151 201.811,89.563 201.89,89.983Z" style="fill:rgb(255,183,143);fill-rule:nonzero;"/>
        <path d="M192.65,105.154C192.578,105.154 192.506,105.15 192.435,105.142L192.546,104.148C192.81,104.177 193.068,104.098 193.27,103.924C193.471,103.749 193.587,103.506 193.596,103.24L193.812,96.585L194.812,96.618L194.595,103.272C194.577,103.813 194.333,104.326 193.924,104.68C193.569,104.986 193.114,105.154 192.65,105.154Z" style="fill:rgb(38,38,38);fill-rule:nonzero;"/>
        <path d="M189.318,96.683C189.262,97.184 188.927,97.557 188.569,97.517C188.211,97.477 187.967,97.038 188.023,96.537C188.079,96.037 188.415,95.663 188.772,95.704C189.13,95.744 189.375,96.182 189.318,96.683Z" style="fill:rgb(38,38,38);fill-rule:nonzero;"/>
        <path d="M199.162,97.788C199.105,98.288 198.77,98.662 198.412,98.622C198.055,98.581 197.81,98.143 197.866,97.642C197.923,97.142 198.258,96.768 198.616,96.808C198.974,96.848 199.218,97.287 199.162,97.788Z" style="fill:rgb(38,38,38);fill-rule:nonzero;"/>
        <path d="M190.233,107.256C189.585,107.142 188.99,106.739 188.644,106.179C188.297,105.619 188.202,104.907 188.39,104.276L189.349,104.561C189.241,104.923 189.295,105.331 189.494,105.653C189.693,105.975 190.034,106.206 190.406,106.271L190.233,107.256Z" style="fill:rgb(38,38,38);fill-rule:nonzero;"/>
        <path d="M187.562,92.193C187.274,92.233 186.984,92.29 186.746,92.408C186.507,92.525 186.329,92.714 186.345,92.909C186.372,93.231 186.877,93.419 187.335,93.509C188.318,93.701 189.389,93.706 190.393,93.522C190.749,93.458 191.137,93.345 191.271,93.114C191.584,92.578 190.559,92.287 190.135,92.214C189.312,92.071 188.399,92.077 187.562,92.193Z" style="fill:rgb(38,38,38);fill-rule:nonzero;"/>
        <path d="M197.937,93.082C197.684,93.077 197.427,93.086 197.208,93.159C196.989,93.231 196.813,93.377 196.805,93.556C196.791,93.853 197.205,94.097 197.59,94.245C198.416,94.561 199.338,94.721 200.226,94.7C200.54,94.692 200.887,94.645 201.03,94.455C201.362,94.013 200.51,93.601 200.154,93.473C199.46,93.223 198.672,93.097 197.937,93.082Z" style="fill:rgb(38,38,38);fill-rule:nonzero;"/>
        <path d="M194.226,78.555C193.33,82.61 191.62,86.488 188.48,89.117C184.625,92.341 179.25,93.086 174.233,92.302C174.729,89.946 176.101,85.217 179.527,81.801C182.176,79.157 186.053,77.297 191.706,77.933C192.606,78.033 193.447,78.245 194.226,78.555Z" style="fill:rgb(38,38,38);fill-rule:nonzero;"/>
        <path d="M177.834,94.001C177.333,92.943 176.168,92.281 174.999,92.231C173.829,92.18 172.678,92.683 171.795,93.452C169.779,95.21 169.226,98.428 170.538,100.759C171.85,103.089 174.888,104.285 177.437,103.474" style="fill:rgb(255,183,143);fill-rule:nonzero;"/>
        <path d="M174.331,99.892L173.332,99.852C173.383,98.554 173.883,97.278 174.707,96.273L173.168,96.139L173.255,95.143L175.854,95.369L176.129,96.252C175.059,97.141 174.386,98.501 174.331,99.892Z" style="fill:rgb(38,38,38);fill-rule:nonzero;"/>
        <path d="M201.89,89.983L201.914,90.11C200.227,89.316 198.648,88.285 197.255,87.041C194.538,84.618 192.532,81.411 191.524,77.915C191.584,77.919 191.646,77.927 191.706,77.933C192.355,78.006 192.974,78.136 193.561,78.319C193.789,78.389 194.01,78.468 194.226,78.555C198.089,80.081 200.48,83.995 201.622,88.745C201.72,89.151 201.811,89.563 201.89,89.983Z" style="fill:rgb(38,38,38);fill-rule:nonzero;"/>
        <path d="M149.125,116.368C154.417,114.665 168.897,117.854 168.897,117.854C168.897,117.854 174.114,133.394 186.881,125.52C186.881,125.52 206.121,128.079 210.245,131.953C214.369,135.827 230.75,163.443 230.75,163.443L229.875,196.354C216.812,196.354 205.307,183.744 198.583,175.034C197.3,173.373 196.19,171.829 195.281,170.502C193.398,167.765 192.359,165.952 192.359,165.952L146.447,163.061" style="fill:rgb(240,149,176);fill-rule:nonzero;"/>
        <path d="M200.688,147.603L198.967,173.791L194.217,172.291L200.688,147.603Z" style="fill:rgb(234,120,158);fill-rule:nonzero;"/>
        <path d="M152.974,163.443L156,153.75L155.799,163.443" style="fill:rgb(234,120,158);fill-rule:nonzero;"/>
        <path d="M153.75,171.443C144.376,171.443 136.75,179.069 136.75,188.443L136.75,281.693C136.75,291.066 144.376,298.693 153.75,298.693L318,298.693C327.374,298.693 335,291.066 335,281.693L335,188.443C335,179.069 327.374,171.443 318,171.443L153.75,171.443ZM318,299.693L153.75,299.693C143.825,299.693 135.75,291.618 135.75,281.693L135.75,188.443C135.75,178.518 143.825,170.443 153.75,170.443L318,170.443C327.926,170.443 336,178.518 336,188.443L336,281.693C336,291.618 327.926,299.693 318,299.693Z" style="fill:rgb(38,38,38);fill-rule:nonzero;"/>
        <path d="M303,163.443L138.75,163.443C129.085,163.443 121.25,171.278 121.25,180.943L121.25,274.192C121.25,283.857 129.085,291.692 138.75,291.692L240.458,291.692L254.25,315.692L268.039,291.692L303,291.692C312.665,291.692 320.5,283.857 320.5,274.192L320.5,180.943C320.5,171.278 312.665,163.443 303,163.443Z" style="fill:white;fill-rule:nonzero;"/>
        <path d="M220.889,205.129C214.459,192.482 195.361,190.583 186.94,202.344C181.997,209.248 181.551,218.462 183.917,226.403C186.278,234.324 192.006,241.37 198.229,246.667C204.956,252.393 213.063,256.516 220.826,260.636C228.598,256.533 236.714,252.429 243.453,246.718C249.689,241.435 255.433,234.402 257.812,226.487C260.196,218.551 259.771,209.335 254.843,202.42C246.449,190.642 227.346,192.497 220.889,205.129Z" style="fill:rgb(237,109,45);fill-rule:nonzero;"/>
        <path d="M170.537,206.171C173.052,207.994 175.117,208.021 175.87,206.588C176.488,205.412 172.516,202.862 168.823,201.209C166.34,200.099 163.689,198.439 163.689,198.439L153.643,210.47C153.643,210.47 168.308,219.35 170.262,218.394C171.433,217.822 170.993,216.894 170.993,216.894C170.993,216.894 172.369,217.972 173.311,217.526C174.253,217.08 174.042,216.026 174.042,216.026C174.042,216.026 175.366,216.783 175.959,215.511C176.607,214.12 173.689,210.01 170.537,206.171Z" style="fill:rgb(255,183,143);fill-rule:nonzero;"/>
        <path d="M173.6,216.258C173.584,216.23 172.084,213.404 169.27,210.698L169.963,209.977C172.901,212.802 174.422,215.673 174.485,215.794L173.6,216.258Z" style="fill:rgb(38,38,38);fill-rule:nonzero;"/>
        <path d="M170.597,217.2C170.579,217.176 168.725,214.78 166.723,212.923L167.403,212.19C169.468,214.105 171.312,216.488 171.389,216.589L170.597,217.2Z" style="fill:rgb(38,38,38);fill-rule:nonzero;"/>
        <path d="M156.012,153.86L152.003,166.54L172.365,196.438L150.162,214.898C150.162,214.898 119.777,191.473 114.266,168.11C109.572,148.209 142.365,118.543 149.125,116.368" style="fill:rgb(240,149,176);fill-rule:nonzero;"/>
        <path d="M143.943,209.762L143.319,208.979L167.654,189.588L168.278,190.37L143.943,209.762Z" style="fill:rgb(38,38,38);fill-rule:nonzero;"/>
        <path d="M118.679,178.598L117.716,178.328L122.22,162.288L117.054,150.587L117.969,150.183L123.208,162.048L123.231,162.385L118.679,178.598Z" style="fill:white;fill-rule:nonzero;"/>
        <path d="M192.572,295.856C193.338,293.526 193.168,289.957 190.917,290.102C188.563,290.252 189.21,293.152 188.308,295.719C187.405,298.285 184.903,302.774 184.903,302.774L197.024,312.711C197.024,312.711 205.771,297.966 204.798,296.021C204.215,294.855 203.291,295.304 203.291,295.304C203.291,295.304 204.357,293.918 203.902,292.979C203.447,292.042 202.396,292.263 202.396,292.263C202.396,292.263 203.14,290.932 201.863,290.351C200.466,289.715 196.383,292.67 192.572,295.856Z" style="fill:rgb(178,97,78);fill-rule:nonzero;"/>
        <path d="M197.111,297.083L196.384,296.396C199.182,293.433 202.039,291.886 202.159,291.821L202.632,292.703C202.604,292.718 199.792,294.244 197.111,297.083Z" style="fill:rgb(38,38,38);fill-rule:nonzero;"/>
        <path d="M199.359,299.609L198.62,298.936C200.516,296.854 202.883,294.988 202.982,294.91L203.6,295.697C203.576,295.715 201.197,297.591 199.359,299.609Z" style="fill:rgb(38,38,38);fill-rule:nonzero;"/>
        <path d="M192.518,303.578L191.606,303.167C192.291,301.649 192.058,299.753 191.026,298.447L191.811,297.827C193.068,299.418 193.352,301.729 192.518,303.578Z" style="fill:rgb(38,38,38);fill-rule:nonzero;"/>
        <path d="M118.399,295.979L108.037,302.832L94.175,295.202L100.419,264.905L110.964,272.151L116.527,275.975L116.227,284.466L116.047,289.557L118.399,295.979Z" style="fill:rgb(178,97,78);fill-rule:nonzero;"/>
        <path d="M110.964,272.151L116.527,275.975L116.227,284.466C111.904,282.546 108.342,278.861 106.784,274.38C108.217,273.632 109.563,272.896 110.964,272.151Z" style="fill:rgb(38,38,38);fill-rule:nonzero;"/>
        <path d="M122.909,275.931C114.517,283.94 105.712,275.583 105.712,275.583L99.349,260.684L98.764,259.309L98.394,258.443C98.394,258.443 98.389,258.257 98.396,257.923C98.394,257.865 98.396,257.804 98.396,257.735C98.399,257.602 98.404,257.445 98.409,257.275C98.501,255.006 99.061,249.861 102.052,245.786C104.267,242.771 107.817,240.341 113.497,240.108C118.379,239.906 121.974,243.131 124.264,247.775C124.277,247.801 124.289,247.826 124.304,247.853C124.519,248.291 124.719,248.741 124.909,249.201C125.082,249.611 125.242,250.031 125.394,250.458C128.542,259.309 127.737,271.313 122.909,275.931Z" style="fill:rgb(178,97,78);fill-rule:nonzero;"/>
        <path d="M118.367,266.879L118.325,265.879C118.591,265.868 118.833,265.75 119.006,265.547C119.178,265.344 119.256,265.087 119.224,264.822L118.422,258.214L119.415,258.094L120.216,264.701C120.281,265.238 120.118,265.783 119.768,266.195C119.417,266.607 118.907,266.855 118.367,266.879Z" style="fill:rgb(38,38,38);fill-rule:nonzero;"/>
        <path d="M113.997,258.995C114.018,259.499 113.744,259.919 113.384,259.934C113.024,259.948 112.716,259.554 112.695,259.05C112.674,258.546 112.949,258.126 113.309,258.111C113.668,258.097 113.977,258.492 113.997,258.995Z" style="fill:rgb(38,38,38);fill-rule:nonzero;"/>
        <path d="M123.891,258.585C123.912,259.089 123.638,259.509 123.278,259.524C122.918,259.538 122.61,259.143 122.589,258.641C122.568,258.136 122.843,257.716 123.203,257.701C123.562,257.686 123.871,258.082 123.891,258.585Z" style="fill:rgb(38,38,38);fill-rule:nonzero;"/>
        <path d="M116.515,269.303C115.856,269.289 115.208,268.982 114.779,268.481C114.352,267.98 114.149,267.292 114.238,266.64L115.229,266.775C115.178,267.149 115.294,267.545 115.54,267.832C115.785,268.119 116.158,268.295 116.535,268.303L116.515,269.303Z" style="fill:rgb(38,38,38);fill-rule:nonzero;"/>
        <path d="M111.503,254.538C111.231,254.638 110.96,254.763 110.757,254.965C110.554,255.167 110.429,255.461 110.497,255.733C110.609,256.184 111.156,256.373 111.631,256.429C112.65,256.548 113.705,256.391 114.644,255.979C114.977,255.834 115.328,255.614 115.399,255.269C115.564,254.464 114.477,254.212 114.042,254.173C113.193,254.097 112.296,254.245 111.503,254.538Z" style="fill:rgb(38,38,38);fill-rule:nonzero;"/>
        <path d="M121.964,253.884C121.714,253.931 121.462,253.998 121.256,254.144C121.051,254.288 120.898,254.524 120.917,254.77C120.948,255.176 121.394,255.42 121.796,255.538C122.66,255.793 123.596,255.813 124.47,255.596C124.779,255.519 125.116,255.381 125.228,255.092C125.49,254.42 124.586,254.041 124.215,253.942C123.492,253.752 122.694,253.748 121.964,253.884Z" style="fill:rgb(38,38,38);fill-rule:nonzero;"/>
        <path d="M259.768,404.493L231.389,386.065L252.281,368.866L277.729,365.456C281.053,365.011 283.357,368.682 281.513,371.481L268.979,390.499C268.979,390.499 262.539,389.811 264.982,396.57L259.768,404.493Z" style="fill:rgb(38,38,38);fill-rule:nonzero;"/>
        <path d="M94.984,290.947C94.984,290.947 111.456,300.851 116.047,289.557C116.047,289.557 135.336,291.147 140.087,295.729C144.838,300.312 161.293,329.669 161.293,329.669L181.5,299.75L204.465,311.303C204.465,311.303 185.261,360.47 175.789,362.353C166.317,364.235 69.763,365.543 69.763,365.543" style="fill:rgb(240,149,176);fill-rule:nonzero;"/>
        <path d="M110.642,412.078C135.437,412.078 152.072,394.358 162.229,377.714C162.872,376.666 163.484,375.621 164.072,374.586C171.765,361.068 175.142,349.078 175.142,349.078L237.892,395.828L261.289,362.061C261.289,362.061 212.892,317.328 189.642,317.828C166.392,318.328 155.142,337.828 155.142,337.828L95.142,360.328L71.892,361.578C71.892,361.578 63.892,412.078 110.642,412.078Z" style="fill:rgb(72,191,132);fill-rule:nonzero;"/>
        <path d="M229.914,389.78L229.086,389.22L252.572,354.478L253.401,355.037L229.914,389.78Z" style="fill:rgb(38,38,38);fill-rule:nonzero;"/>
        <path d="M82.45,330.989L84.789,344.646L98.566,355.049L93.289,363.561L75.605,347.852L82.45,330.989Z" style="fill:rgb(234,120,158);fill-rule:nonzero;"/>
        <path d="M173.652,321.521C173.652,321.521 208.142,349.328 221.392,371.078L206.642,379.828L173.652,321.521Z" style="fill:rgb(34,160,93);fill-rule:nonzero;"/>
        <path d="M202.73,412.029L181.227,385.905L206.331,375.804L231.624,380.223C234.927,380.8 236.018,384.994 233.415,387.107L215.731,401.463C215.731,401.463 208.789,398.561 210.091,406.047L202.73,412.029Z" style="fill:rgb(38,38,38);fill-rule:nonzero;"/>
        <path d="M140.142,345.078L180.892,395.328L216.392,369.828C216.392,369.828 173.892,309.078 149.392,309.578C124.892,310.078 95.142,360.328 95.142,360.328" style="fill:rgb(72,191,132);fill-rule:nonzero;"/>
        <path d="M105.367,378.072C107.956,379.789 110.019,379.73 110.712,378.268C111.281,377.066 107.208,374.684 103.449,373.186C100.922,372.179 98.204,370.631 98.204,370.631L88.666,383.066C88.666,383.066 103.686,391.332 105.599,390.296C106.745,389.676 106.267,388.768 106.267,388.768C106.267,388.768 107.687,389.787 108.609,389.303C109.532,388.817 109.277,387.773 109.277,387.773C109.277,387.773 110.631,388.475 111.171,387.179C111.761,385.763 108.675,381.777 105.367,378.072Z" style="fill:rgb(178,97,78);fill-rule:nonzero;"/>
        <path d="M108.845,388.023C108.829,387.996 107.213,385.234 104.288,382.647L104.951,381.898C108.003,384.6 109.642,387.405 109.71,387.523L108.845,388.023Z" style="fill:rgb(38,38,38);fill-rule:nonzero;"/>
        <path d="M105.884,389.088C105.864,389.065 103.913,386.749 101.836,384.977L102.485,384.216C104.627,386.043 106.568,388.349 106.65,388.445L105.884,389.088Z" style="fill:rgb(38,38,38);fill-rule:nonzero;"/>
        <path d="M82.469,330.027L82.161,345.597L103.737,367.749L86.522,390.153C86.522,390.153 45.726,368.776 46.917,343.494C48.108,318.211 62.376,299.49 67.748,296.594C73.12,293.697 94.984,290.947 94.984,290.947" style="fill:rgb(240,149,176);fill-rule:nonzero;"/>
        <path d="M141.899,347.246L162.229,377.714C162.872,376.666 163.484,375.621 164.072,374.586L141.899,347.246Z" style="fill:rgb(34,160,93);fill-rule:nonzero;"/>
        <path d="M152.892,362.828C152.892,362.828 147.142,374.328 139.892,383.828C139.892,383.828 148.142,376.578 154.892,364.828" style="fill:rgb(34,160,93);fill-rule:nonzero;"/>
        <path d="M124.909,249.201C123.834,249.371 122.734,249.375 121.659,249.213C119.396,248.871 116.981,247.793 115.372,246.168C114.524,247.383 113.189,248.25 111.734,248.528C110.279,248.806 108.279,248.835 107.044,248.016C105.949,252.28 102.587,255.886 98.409,257.275C98.501,255.006 99.061,249.861 102.052,245.786C104.267,242.771 107.817,240.341 113.497,240.108C118.379,239.906 121.974,243.131 124.264,247.775C124.277,247.801 124.289,247.826 124.304,247.853C124.519,248.291 124.719,248.741 124.909,249.201Z" style="fill:rgb(38,38,38);fill-rule:nonzero;"/>
        <path d="M102.248,257.735C101.591,256.766 100.34,256.289 99.176,256.418C98.013,256.547 96.952,257.219 96.197,258.113C94.474,260.158 94.418,263.422 96.069,265.524C97.721,267.628 100.907,268.346 103.301,267.154" style="fill:rgb(178,97,78);fill-rule:nonzero;"/>
        <path d="M99.006,264.283C98.456,263.107 98.313,261.744 98.582,260.474L97.155,261.063L96.774,260.137L99.185,259.145L99.836,259.801C99.293,261.082 99.322,262.6 99.912,263.859L99.006,264.283Z" style="fill:rgb(38,38,38);fill-rule:nonzero;"/>
        <clipPath id="_clip1">
            <path d="M181.5,299.75L161.293,329.669C161.293,329.669 144.838,300.312 140.087,295.729C135.336,291.147 116.047,289.557 116.047,289.557C111.456,300.851 94.984,290.947 94.984,290.947C94.984,290.947 73.12,293.697 67.748,296.594C62.376,299.49 48.108,318.211 46.917,343.494C45.726,368.776 86.522,390.153 86.522,390.153L103.737,367.749L101.084,365.024C130.179,364.476 169.888,363.525 175.789,362.353C185.261,360.47 204.465,311.303 204.465,311.303L181.5,299.75Z"/>
        </clipPath>
        <g clip-path="url(#_clip1)">
            <path d="M107.768,300.788C100.748,300.788 92.866,297.127 88.992,291.734L89.804,291.151C94.101,297.133 103.568,300.882 110.908,299.509C117.648,298.247 122.198,292.928 123.392,284.915L124.381,285.063C123.121,293.523 118.277,299.146 111.092,300.491C110.021,300.691 108.905,300.788 107.768,300.788Z" style="fill:white;fill-rule:nonzero;"/>
        </g>
        <path d="M78.392,385.333L77.607,384.713L96.66,360.576L97.444,361.195L78.392,385.333Z" style="fill:white;fill-rule:nonzero;"/>
        <path d="M175.07,388.17L174.46,387.377L209.195,360.604L209.805,361.396L175.07,388.17Z" style="fill:rgb(38,38,38);fill-rule:nonzero;"/>
        <path d="M267.538,233.931C265.105,234.246 261.631,233.407 262.195,231.224C262.787,228.939 265.513,230.12 268.204,229.716C270.895,229.313 275.773,227.698 275.773,227.698L283.255,241.47C283.255,241.47 267.13,247.291 265.401,245.969C264.367,245.178 264.98,244.355 264.98,244.355C264.98,244.355 263.419,245.141 262.583,244.518C261.747,243.895 262.162,242.904 262.162,242.904C262.162,242.904 260.715,243.385 260.384,242.021C260.022,240.53 263.691,237.075 267.538,233.931Z" style="fill:rgb(178,97,78);fill-rule:nonzero;"/>
        <path d="M262.55,243.218L261.773,242.589C261.859,242.483 263.915,239.967 267.352,237.775L267.89,238.619C264.598,240.718 262.57,243.193 262.55,243.218Z" style="fill:rgb(38,38,38);fill-rule:nonzero;"/>
        <path d="M265.309,244.732L264.652,243.978C264.748,243.895 267.024,241.92 269.426,240.449L269.948,241.302C267.62,242.729 265.331,244.712 265.309,244.732Z" style="fill:rgb(38,38,38);fill-rule:nonzero;"/>
        <path d="M273.894,235.472C272.285,235.472 270.67,234.771 269.616,233.553L270.373,232.899C271.461,234.158 273.28,234.743 274.898,234.355L275.132,235.328C274.727,235.425 274.311,235.472 273.894,235.472Z" style="fill:rgb(38,38,38);fill-rule:nonzero;"/>
        <path d="M328.324,171.786L338.158,179.377L352.541,172.781L348.528,142.108L337.481,148.565L331.654,151.971L331.333,160.461L331.141,165.552L328.324,171.786Z" style="fill:rgb(178,97,78);fill-rule:nonzero;"/>
        <path d="M337.481,148.565L331.654,151.971L331.333,160.461C335.785,158.862 339.606,155.449 341.487,151.093C340.113,150.242 338.824,149.409 337.481,148.565Z" style="fill:rgb(38,38,38);fill-rule:nonzero;"/>
        <path d="M351.069,135.105C351.064,135.173 351.062,135.236 351.057,135.293C351.039,135.625 351.02,135.811 351.02,135.811L350.587,136.648L349.904,137.976L342.469,152.371C342.469,152.371 333.077,160.063 325.292,151.46C320.814,146.503 320.89,134.471 324.677,125.875C325.064,124.996 325.489,124.15 325.954,123.355C325.969,123.331 325.984,123.306 325.999,123.281C326.39,122.616 326.807,121.986 327.249,121.396C329.781,118.016 333.167,115.946 337.299,116.42C342.946,117.068 346.31,119.75 348.297,122.92C350.552,126.516 351.042,130.741 351.097,133.346C351.111,134.076 351.092,134.678 351.069,135.105Z" style="fill:rgb(178,97,78);fill-rule:nonzero;"/>
        <path d="M330.484,142.765C329.947,142.703 329.456,142.417 329.137,141.98C328.818,141.544 328.694,140.989 328.799,140.459L330.081,133.927L331.063,134.119L329.78,140.651C329.729,140.913 329.787,141.175 329.944,141.391C330.102,141.605 330.334,141.741 330.599,141.771L330.484,142.765Z" style="fill:rgb(38,38,38);fill-rule:nonzero;"/>
        <path d="M335.418,135.222C335.36,135.723 335.604,136.162 335.961,136.203C336.318,136.244 336.655,135.872 336.713,135.371C336.771,134.871 336.527,134.432 336.17,134.391C335.813,134.35 335.476,134.722 335.418,135.222Z" style="fill:rgb(38,38,38);fill-rule:nonzero;"/>
        <path d="M325.58,134.09C325.523,134.59 325.766,135.029 326.123,135.071C326.48,135.112 326.817,134.739 326.875,134.239C326.933,133.739 326.689,133.299 326.332,133.258C325.975,133.217 325.638,133.589 325.58,134.09Z" style="fill:rgb(38,38,38);fill-rule:nonzero;"/>
        <path d="M332.271,145.321C332.232,145.321 332.193,145.32 332.154,145.318L332.207,144.319C332.582,144.338 332.968,144.191 333.233,143.922C333.5,143.653 333.645,143.268 333.621,142.891L334.619,142.829C334.66,143.485 334.408,144.157 333.944,144.626C333.509,145.066 332.891,145.321 332.271,145.321Z" style="fill:rgb(38,38,38);fill-rule:nonzero;"/>
        <path d="M338.231,130.959C338.495,131.079 338.756,131.223 338.944,131.439C339.132,131.656 339.235,131.958 339.147,132.225C339.003,132.665 338.443,132.813 337.966,132.834C336.941,132.88 335.9,132.646 334.993,132.167C334.673,131.998 334.338,131.753 334.292,131.403C334.187,130.589 335.289,130.416 335.727,130.409C336.578,130.396 337.462,130.609 338.231,130.959Z" style="fill:rgb(38,38,38);fill-rule:nonzero;"/>
        <path d="M327.846,129.542C328.092,129.606 328.339,129.693 328.533,129.853C328.728,130.012 328.862,130.259 328.826,130.502C328.766,130.905 328.303,131.115 327.893,131.205C327.013,131.395 326.078,131.347 325.222,131.066C324.919,130.967 324.594,130.805 324.503,130.508C324.29,129.819 325.22,129.507 325.597,129.437C326.332,129.299 327.128,129.353 327.846,129.542Z" style="fill:rgb(38,38,38);fill-rule:nonzero;"/>
        <path d="M336.363,412.052L338.137,386.211L308.106,386.219L293.085,405.789C291.11,408.362 292.946,412.081 296.189,412.078L319.61,412.057C319.61,412.057 322.81,406.15 326.878,412.055L336.363,412.052Z" style="fill:rgb(38,38,38);fill-rule:nonzero;"/>
        <path d="M299.171,389.121L342.671,389.121L347.249,313.929L349.489,277.102L349.671,274.121L320.421,234.371L299.171,389.121Z" style="fill:rgb(237,109,45);fill-rule:nonzero;"/>
        <path d="M420.656,262.878L404.786,283.284L426.038,300.783L450.076,295.23C453.236,294.5 454.185,290.462 451.68,288.402L433.59,273.526C433.59,273.526 427.365,276.05 427.979,268.907L420.656,262.878Z" style="fill:rgb(38,38,38);fill-rule:nonzero;"/>
        <path d="M339.669,262.829C339.669,262.829 341.576,294.068 347.249,313.929L349.489,277.102L339.669,262.829Z" style="fill:rgb(221,75,11);fill-rule:nonzero;"/>
        <path d="M320.421,234.371L365.421,230.871C377.921,244.371 388.289,295.561 388.289,295.561L406.789,277.061L429.789,303.311C429.789,303.311 398.789,348.561 379.289,343.061C347.849,334.193 339.421,261.121 339.421,261.121" style="fill:rgb(237,109,45);fill-rule:nonzero;"/>
        <path d="M308.305,389.177L307.312,389.065L324.753,233.194L325.747,233.306L308.305,389.177Z" style="fill:white;fill-rule:nonzero;"/>
        <path d="M343.703,246.686C341.324,248.683 339.267,248.856 338.414,247.48C337.714,246.351 341.494,243.526 345.061,241.615C347.458,240.33 349.984,238.487 349.984,238.487L360.86,249.773C360.86,249.773 346.863,259.673 344.847,258.858C343.639,258.371 344.011,257.414 344.011,257.414C344.011,257.414 342.715,258.589 341.743,258.21C340.772,257.831 340.907,256.766 340.907,256.766C340.907,256.766 339.641,257.613 338.959,256.387C338.214,255.046 340.832,250.739 343.703,246.686Z" style="fill:rgb(178,97,78);fill-rule:nonzero;"/>
        <path d="M341.366,256.965L340.449,256.564C340.504,256.439 341.817,253.468 344.547,250.441L345.289,251.111C342.674,254.011 341.379,256.936 341.366,256.965Z" style="fill:rgb(38,38,38);fill-rule:nonzero;"/>
        <path d="M344.428,257.69L343.594,257.138C343.664,257.033 345.334,254.523 347.258,252.467L347.988,253.15C346.123,255.145 344.444,257.666 344.428,257.69Z" style="fill:rgb(38,38,38);fill-rule:nonzero;"/>
        <path d="M384.422,206.871C384.422,206.871 383.637,214.198 376.574,222.038C373.877,225.036 370.262,228.105 365.422,230.871C357.712,235.275 348.062,236.478 339.677,236.446C329.029,236.406 320.422,234.371 320.422,234.371L320.422,220.371L320.417,220.381C320.366,220.468 319.35,222.951 316.469,226.483C314.606,228.773 311.959,231.503 308.289,234.311C299.789,240.811 282.039,246.061 282.039,246.061L273.039,224.561L296.789,202.811C296.789,202.811 307.574,174.103 312.289,170.061C315.789,167.061 331.142,165.551 331.142,165.551C336.642,183.051 351.779,166.96 351.779,166.96L384.422,206.871Z" style="fill:rgb(72,191,132);fill-rule:nonzero;"/>
        <path d="M339.671,236.371L339.677,236.446C348.062,236.479 357.711,235.276 365.421,230.871C370.262,228.106 373.876,225.036 376.574,222.039L364.921,202.871L366.671,213.871L339.671,236.371Z" style="fill:rgb(34,160,93);fill-rule:nonzero;"/>
        <path d="M364.921,202.871L369.171,214.621L345.421,236.371L359.421,256.871C359.421,256.871 396.421,237.121 398.671,218.871C400.921,200.621 381.088,170.838 373.671,167.871C367.421,165.371 351.779,166.96 351.779,166.96" style="fill:rgb(72,191,132);fill-rule:nonzero;"/>
        <path d="M347.229,134.823C347.954,133.905 349.236,133.521 350.388,133.735C351.538,133.948 352.547,134.696 353.234,135.644C354.804,137.809 354.621,141.068 352.82,143.044C351.02,145.021 347.79,145.504 345.489,144.142" style="fill:rgb(178,97,78);fill-rule:nonzero;"/>
        <path d="M349.982,141.591L349.11,141.102C349.791,139.889 349.93,138.378 349.482,137.061L350.179,136.453L352.511,137.619L352.063,138.514L350.684,137.823C350.859,139.11 350.617,140.458 349.982,141.591Z" style="fill:rgb(38,38,38);fill-rule:nonzero;"/>
        <path d="M320.422,220.371L320.417,220.381C320.366,220.468 319.35,222.951 316.469,226.483L320.039,204.561L320.422,220.371Z" style="fill:rgb(34,160,93);fill-rule:nonzero;"/>
        <path d="M388.289,295.561L389.789,300.811L397.425,286.425L388.289,295.561Z" style="fill:rgb(221,75,11);fill-rule:nonzero;"/>
        <path d="M351.097,133.346C350.077,132.875 349.116,132.275 348.249,131.558C345.834,129.563 343.767,127.288 343.244,124.201C337.792,124.5 332.274,123.525 327.249,121.396C329.781,118.016 333.167,115.946 337.299,116.42C342.946,117.068 346.31,119.75 348.297,122.92C350.552,126.516 351.042,130.741 351.097,133.346Z" style="fill:rgb(38,38,38);fill-rule:nonzero;"/>
        <path d="M393.11,301.097L392.39,300.403L410.608,281.483L411.328,282.177L393.11,301.097Z" style="fill:white;fill-rule:nonzero;"/>
        <path d="M365.949,253.09L351.014,231.152L351.84,230.59L366.775,252.527L365.949,253.09Z" style="fill:rgb(38,38,38);fill-rule:nonzero;"/>
        <path d="M288.809,243.846L277.937,219.865L278.847,219.453L289.72,243.433L288.809,243.846Z" style="fill:rgb(38,38,38);fill-rule:nonzero;"/>
        <path d="M377.182,378.829C377.416,380.144 377.872,381.419 378.547,382.582C379.702,384.572 381.327,385.934 383.123,386.414C385.12,386.948 387.354,386.184 388.315,384.636C388.945,383.624 389.015,382.361 388.513,381.078C387.854,379.395 386.354,378.012 384.692,377.556C382.498,376.954 379.979,377.382 377.182,378.829ZM360.752,412.176C359.55,406.1 360.305,399.443 362.877,393.432C365.449,387.42 369.744,382.278 374.97,378.954C375.348,378.714 375.721,378.49 376.091,378.282C375.811,375.943 376.166,373.529 377.175,371.384C378.908,367.693 382.483,364.981 386.504,364.306L386.67,365.292C382.968,365.914 379.676,368.411 378.08,371.809C377.206,373.668 376.864,375.746 377.042,377.779C379.945,376.344 382.599,375.943 384.957,376.592C386.912,377.129 388.674,378.746 389.443,380.714C390.064,382.297 389.965,383.878 389.165,385.164C387.959,387.102 385.309,388.032 382.865,387.38C380.812,386.831 378.971,385.305 377.682,383.084C377.006,381.918 376.531,380.647 376.262,379.336C376.012,379.482 375.761,379.636 375.506,379.798C370.449,383.016 366.291,387.997 363.797,393.825C361.303,399.653 360.569,406.102 361.733,411.981L360.752,412.176Z" style="fill:rgb(38,38,38);fill-rule:nonzero;"/>
        <path d="M120.033,374.544C119.242,381.646 120.527,389.02 123.689,395.424C126.935,401.996 132.057,407.581 138.17,411.234C137.013,398.941 130.304,385.369 120.033,374.544ZM138.421,412.537C131.807,408.802 126.257,402.882 122.793,395.867C119.39,388.974 118.104,380.985 119.172,373.373L120.025,373.094C131.147,384.49 138.333,399.094 139.249,412.158L138.609,412.203L138.421,412.537Z" style="fill:rgb(38,38,38);fill-rule:nonzero;"/>
        <path d="M138.146,412.116C136.808,394.431 139.566,376.368 146.123,359.88L147.053,360.25C140.551,376.597 137.816,394.506 139.144,412.041L138.146,412.116Z" style="fill:rgb(38,38,38);fill-rule:nonzero;"/>
        <path d="M145.851,362.052C148.554,362.962 151.723,362.066 153.761,360.157C155.504,358.524 156.499,356.174 156.328,353.858C156.157,351.543 154.792,349.313 152.701,348.1C150.144,346.615 146.617,346.811 144.261,348.569C140.069,351.697 140.405,360.22 145.851,362.052Z" style="fill:white;fill-rule:nonzero;"/>
        <path d="M397.374,412.021C397.374,412.021 402.208,386.835 426.541,412.078" style="fill:rgb(72,191,132);fill-rule:nonzero;"/>
        <path d="M408.691,238.98C407.422,238.98 406.149,239.357 405.157,240.098C403.524,241.316 402.688,243.76 403.073,246.178C403.412,248.305 404.604,249.86 406.342,250.444C408.327,251.113 410.771,250.522 412.424,248.976C413.792,247.695 414.532,245.885 414.402,244.136C414.27,242.339 413.208,240.654 411.632,239.739C410.756,239.23 409.725,238.98 408.691,238.98ZM408.045,251.714C407.351,251.714 406.667,251.609 406.022,251.393C403.951,250.695 402.479,248.805 402.086,246.336C401.643,243.561 402.637,240.731 404.56,239.296C406.664,237.726 409.85,237.548 412.134,238.874C413.992,239.953 415.243,241.94 415.4,244.063C415.551,246.11 414.694,248.22 413.107,249.706C411.725,251.001 409.854,251.714 408.045,251.714Z" style="fill:white;fill-rule:nonzero;"/>
        <path d="M94.591,208.195C96.578,208.863 99.022,208.273 100.673,206.726C102.042,205.445 102.782,203.635 102.653,201.886C102.52,200.089 101.458,198.404 99.881,197.489C97.928,196.355 95.206,196.506 93.407,197.848C91.774,199.066 90.937,201.51 91.323,203.928C91.662,206.055 92.854,207.61 94.591,208.195ZM96.293,209.464C95.6,209.464 94.917,209.359 94.272,209.143C92.201,208.446 90.729,206.555 90.335,204.085C89.892,201.31 90.886,198.481 92.809,197.046C94.914,195.475 98.099,195.297 100.384,196.624C102.242,197.703 103.493,199.69 103.65,201.813C103.801,203.86 102.944,205.97 101.357,207.456C99.974,208.751 98.103,209.464 96.293,209.464Z" style="fill:rgb(38,38,38);fill-rule:nonzero;"/>
        <path d="M232.976,139.982C232.773,135.163 231.125,130.419 228.209,126.264C225.293,122.108 221.393,118.945 216.93,117.116L216.62,116.678L215.548,94.387L216.547,94.339L217.604,116.314C222.121,118.232 226.065,121.469 229.028,125.689C232.054,130.002 233.765,134.93 233.975,139.94L232.976,139.982Z" style="fill:rgb(38,38,38);fill-rule:nonzero;"/>
        <rect x="47" y="411.578" width="406" height="1" style="fill:rgb(38,38,38);fill-rule:nonzero;"/>
        <path d="M155.799,163.443L152.974,163.443" style="fill:none;fill-rule:nonzero;"/>
    </g>
</svg>
