<?xml version="1.0" encoding="UTF-8" standalone="no"?>
<!DOCTYPE svg PUBLIC "-//W3C//DTD SVG 1.1//EN" "http://www.w3.org/Graphics/SVG/1.1/DTD/svg11.dtd">
<svg width="100%" height="100%" viewBox="0 0 500 500" version="1.1" xmlns="http://www.w3.org/2000/svg" xmlns:xlink="http://www.w3.org/1999/xlink" xml:space="preserve" xmlns:serif="http://www.serif.com/" style="fill-rule:evenodd;clip-rule:evenodd;stroke-linejoin:round;stroke-miterlimit:2;">
    <g transform="matrix(2.1097,0,0,1.14679,-527.426,-36.6972)">
        <ellipse cx="368.5" cy="250" rx="118.5" ry="218" style="fill:url(#_Linear1);"/>
    </g>
    <g transform="matrix(1,0,0,1,0.790995,-9.65913)">
        <path d="M250,384C250,384 149.343,326.269 133,250C121,194 154,169.681 183,167C218,163.765 243,184 250,209C257,184 277,165 310,168C341,170.818 374,194 367,250C357.644,324.85 250,384 250,384Z" style="fill:white;"/>
    </g>
    <defs>
        <linearGradient id="_Linear1" x1="0" y1="0" x2="1" y2="0" gradientUnits="userSpaceOnUse" gradientTransform="matrix(-183.474,-341,185.36,-337.531,487,468)"><stop offset="0" style="stop-color:rgb(91,158,42);stop-opacity:1"/><stop offset="1" style="stop-color:rgb(163,244,103);stop-opacity:1"/></linearGradient>
    </defs>
</svg>
